<?xml version="1.0" encoding="UTF-8"?>
<svg xmlns="http://www.w3.org/2000/svg" viewBox="0 0 684 198.8"><path fill="none" d="M455.3 159.7c-11.9 3.9-16.5 8.3-16.5 16.1 0 7.6 5.3 12.6 13.8 12.6 6.2 0 12.8-2.5 17-6 6-5.1 8.5-11 8.5-22v-9.6c-6.7 3.5-10.8 5-15.9 6.5l-6.9 2.4z"/><path fill="#403A21" d="M130 186.2c-9.4 0-12.6-2.2-20.5-10.3l-42.3-47.5 27.6-22.7C107.7 95.3 113.4 92 122.3 92h5.7v-9.4H71.1V92h8.4c6 0 8.1 1.1 8.1 3.5 0 1.6-1 2.9-3.3 4.8l-48.7 40V105c-.2-11.2 1.1-12.6 12.6-12.9h7.6v-9.4H0v9.4h6.2c11.3.4 12.6 1.8 12.4 12.9v68.3c.2 11.2-1.1 12.6-12.4 12.9H0v9.4h55.7v-9.4h-7.6c-11.5-.4-12.7-1.8-12.6-12.9v-18.8l19-15.6 30.9 35.3c6.2 6.7 6.2 7.4 6.2 8.7 0 2.1-2.5 3.4-6.9 3.4H72.3v9.4H132v-9.4h-2zm59.9-77c-11.9 0-22.4 9.2-26.5 23.4v-20H132v8.8h5c9.7.4 11.3 1.9 11.3 10.1v44.7c0 8.3-1.6 10.1-11.3 10.1h-1.7v9.4h48v-8.8h-8.7c-9.7-.2-11.3-1.8-11.3-10.1v-13c0-9.9 1.4-18.9 4.3-27 3.3-9.2 11.4-18.5 20.9-18.5 5.4 0 8 3.4 8.6 5.9-5 0-8.1 3.3-8.1 8.7 0 5.4 4.2 9.3 10 9.3 6.9 0 10.8-5.1 10.8-12.2.1-12.8-7.8-20.8-19.9-20.8z"/><path fill="#403A21" d="M132 186.2h3.3v9.4H132zm113.4-9.4v-64.2h-30.3l.1 8.8h3.7c9.7.4 11.3 1.8 11.3 10.1v45.3c0 8.3-1.6 9.7-11.3 10.1h-5.7v8.8h48.1v-8.8h-4.6c-9.7-.4-11.3-1.8-11.3-10.1zm-8.8-78.6c5.5 0 9.9-4.6 9.9-10.1s-4.4-9.9-9.9-9.9-10.1 4.4-10.1 9.7c0 5.9 4.5 10.3 10.1 10.3zm83.5 48.7l-16.6-3c-9.6-1.8-14.7-6.2-14.7-12.7 0-7.4 6.5-12.2 17-12.2 8.1 0 15.2 2.7 20.4 7.6 4.2 4.1 6 8.2 7.7 17.2h9.5v-32.2h-8L332 119c-10.1-6.7-17.3-9.2-27.8-9.2-17.7 0-30.1 10.1-30.1 24.6 0 12.6 10.3 22.1 27.6 25.5l15.9 3c10.4 2.1 15.4 6 15.4 12.6 0 8.1-7.6 13.5-19.3 13.5-8 0-15.8-3-21.6-8.3-5.3-4.8-7.4-8.9-9.3-18.9H273v34.7h9l3.5-8.8c10.3 8.3 17.2 11 28.9 11 20.2 0 33.1-10.3 33.1-26.5.1-13.1-9.7-21.9-27.4-25.3zm81.9 34.5c-1.7 4.6-6.3 6.6-11.2 6.6-5.7 0-8.4-3-8.4-9.3v-57.4h28v-8.8h-28V80.7h-8.3c-1.9 22.7-5.7 30.6-19.5 31.9v8.8h12.8v57.4c0 12.2 8 19.8 20.9 19.8 9.6 0 18-4 21.2-11.9 1.9-4.5 2.7-9.9 2.7-19.3h-8.5c0 6.2-.5 10.8-1.7 14zm96.3 7.5c-3.7 0-5.3-2.7-5.3-10.1v-40.2c0-11.5-3.1-17.3-9.9-22.3-6-4.4-13.3-6.6-22.7-6.6-18.9 0-34 10.1-34 23 0 7.1 5.2 11.1 11.3 11.1 6.2 0 9.5-3.8 9.5-8.7 0-4.9-2.8-8.3-7.9-9.1 3.7-4.8 10.8-8.4 18.9-8.4 14.8 0 20.5 7.4 20.5 16.5 0 7.3-3.2 10.1-14 13.1l-13.8 3.9c-10.6 3-15.2 4.8-20 8.1-5.7 4.1-8.7 9.9-8.7 16.8 0 13.6 10.4 22.7 26 22.7 11.5 0 20.1-3.7 30.8-14 3 9.9 8 14 16.9 14 14 0 18.5-8.4 18.5-32.9h-8.1c0 18.1-2.5 23.1-8 23.1zm-20.1-28.5c0 11-2.5 16.8-8.5 22-4.2 3.5-10.8 6-17 6-8.5 0-13.8-5-13.8-12.6 0-7.8 4.6-12.2 16.5-16.1l6.9-2.3c5.1-1.6 9.3-3 15.9-6.5v9.5zm47.9 29h1c.1-2.5.6-3.1 2.7-3.2h.4v7.3c0 .9-.1 1-1 1h-1.1v1h6v-1H533c-1 0-1-.1-1-1v-7.3h.4c2.1 0 2.6.6 2.7 3.2h1v-4.2H526v4.2zm18.3 3.6l-3.2-7.8h-3.9v1h.6c1 0 1.1.1 1 1v6.3c0 .9-.1 1-1 1h-.6v1h4.6v-1h-.6c-1 0-1.1-.1-1-1v-6.7l3.6 8.7h.8l3.6-8.5v6.5c0 .9-.1 1-1 1h-.7v1h5.1v-1h-.6c-1 0-1-.1-1-1v-6.3c0-.9.1-1 1-1h.6v-1h-3.8l-3.5 7.8z"/><path fill="none" d="M607.1 58.2c-.2-.1-.5 0-.5.2v.2c0 .7 0 .7.1.7.2 0 .4-.1.5-.3.1-.1.1-.2.2-.3.1-.2-.1-.4-.3-.5zm18.1 11.5c.2.3.4.6.4 1.1 0 .4.2.9-.1 1.3-.2.3 0 .6.2.8.3.3.6.7 1 .9.5.2.8.5.7 1.1l.9 2.1c.1.4.4.7.6 1 .2.3.6.5 1 .5.5 0 .9-.2 1.2-.6.1-.2.3-.4.3-.6.1-.4.4-.6.9-.5.3.1.6-.1.9-.2.2-.1.4-.4.3-.6 0-.2-.1-.3-.1-.4-.1-.3-.1-.6.2-.9.4-.5.9-.9 1.5-.9.6-.8.9-1.7 1.3-2.6V71c-.1-.1-.1-.3-.2-.4-.1-.1-.3-.1-.4-.1-.1 0-.1.1-.2.1-.6.4-.7.4-1.1 0-.3-.3-.5-.6-.7-.8-.6 0-1.2-.2-1.7-.5l-3-2.1c-1.2-.8-2.4-1.3-3.8-1.5-.1 0-.3.1-.4.2-.4.4-.7.9-.5 1.4 0 .7.3 1.6.8 2.4z"/><path fill="none" d="M635.3 73.9c-.1 0-.1-.1-.2-.1v.1h.2zM587 76.1s-.1 0-.1-.1c-.1.2-.1.2.1.2v-.1zm-22 1.3c-.1.1-.2.1-.1.1s.1 0 .1-.1zm68.8-8s0 .1-.1.1c.2 0 .2-.1.1-.1zM583.5 85c.1 0 .1-.1.1-.1-.1-.1-.1-.2-.2-.3 0 0-.1-.1-.2 0s-.2.2-.1.3c.2.1.3.2.4.1zm-9.1-8.4c.1-.1 0-.3-.1-.3l-.1.1c-.1.1 0 .3.1.3 0 .1.1 0 .1-.1zm-8.8-.1s-.1-.1-.2-.1-.3 0-.3.2v.8c.2-.1.3-.2.5-.3.1-.2.1-.4 0-.6zm-40.8-33.8s0 .1.1.1c.1.1.3 0 .3-.1v-.2l-.1-.1c-.1.2-.2.2-.3.3zm106.3 24.2c.2 0 .5-.2.5-.5 0-.2-.2-.5-.5-.5s-.6.2-.5.4c0 .4.2.6.5.6zM522.4 52.2v.1h.2c.1-.1.1-.2 0-.2s-.1.1-.2.1zM666 112.9c.1 0 .1 0 0 0 .4 0 .7-.1.8-.4-.3.1-.6.1-.8.4zM677.2 98c-.2.1-.3.2-.4.4-.1.1 0 .2 0 .4 0 .1.2.2.3.2.3-.1.5-.2.8-.3v-.4c-.2-.4-.4-.5-.7-.3zM528.1 65.1c-.2-.4-.4-.7-.5-1.1-.1-.3-.4-.4-.7-.4-.3.1-.5.3-.4.6 0 .5.1.9.2 1.4 0 .6 0 1.2.1 1.8 0 .2 0 .4.1.6.2.5.5 1 .9 1.3.1.1.3.1.4 0 .3-.2.5-.5.4-.9 0-.4.1-.6.3-.9.4-.4.3-.9 0-1.3-.4-.3-.6-.7-.8-1.1zm-.6-4.3c.1 0 .2-.2.3-.2 0-.1 0-.2-.2-.3-.2-.1-.3 0-.3.2-.1.1 0 .4.2.3zm.6-11.4c.3.1.6-.1.5-.4 0-.1-.1-.3-.1-.4-.1-.2-.4-.3-.7-.1-.2.1-.2.3-.1.5 0 .2.2.3.4.4zm1.3-17.1h-.1c0 .1.1.1.2.2 0-.2 0-.2-.1-.2zm0 43.1c-.1.1 0 .2.1.2l.1-.1s0-.1-.1-.1h-.1zm8.6 8.2s0-.1.1-.1c-.2.1-.2.1-.1.1zm-4.1-7.5c-.1-.1-.3-.2-.4-.1-.5 0-.7-.2-.9-.6-.2-.4-.3-.8-.7-1-.1-.1-.5 0-.5.1s-.1.3-.1.4l.3 1.2c.1.2 0 .3-.3.3-.1 0-.3 0-.3-.1h-.7c-.2 0-.3 0-.3.2v.2c.5.8 1.2 1.5 1.9 2.1.1 0 .3 0 .3-.1.2-.4.5-.3.9-.3.1 0 .3-.1.3-.2.2-.6.2-1.2.7-1.7.2 0 0-.3-.2-.4zm-4.2-2.9c-.1 0-.2.1-.2.3 0 .1.1.3.2.3s.1-.2.2-.3c0-.2-.1-.3-.2-.3zm5.2 5.7v.2h.1v-.2h-.1zm.8-1.7c-.3 0-.5-.1-.8-.1-.1 0-.1 0-.2.1s-.1.2 0 .4.2.5.6.5c.3 0 .5.1.7.2v-.6c0-.4-.1-.5-.3-.5zm2.5 6.1s0 .1-.1.1c.2 0 .2-.1.1-.1zm-1.3-5.2l.3-.3-.3.3zm-.7.6c.1.2.4.2.5 0 .1-.2.1-.3.1-.5h-.8c.1.2.1.4.2.5zm67.6 36.6s.1 0 .1.1c-.1-.2-.1-.2-.1-.1zm-50.2-30.7s.1 0 .2-.1v-.1s-.1-.1-.2 0c-.2.1-.2.2 0 .2zm-4.4-5.6c.2.1.5.2.7.2.1 0 .2-.1.3-.2.1-.1-.1-.4-.3-.4h-.7c-.1 0-.1.1-.2.1 0 .1.1.3.2.3zm5.9 6.2V85l-.1-.1-.1.1s0 .1.1.1c0 .2.1.2.1.1zm-15.2-.3c.1-.1.1-.2.2-.3 0-.1-.1-.2-.1-.4l-.1-.1c-.1 0-.3 0-.3.1 0 .2-.1.4 0 .5-.1.2.2.3.3.2zm19.3-9.2c0-.2-.2-.4-.4-.3-.1.1-.2.2-.2.3 0 .1.1.2.2.3.2.1.4-.1.4-.3zm-29.5-43.2s-.1 0-.1-.1c0 .2 0 .2.1.1zm3-6.5c.1-.1.4-.2.1-.4 0 0-.2.1-.3.2v.2h.2zm-.1 26.6s0 .1.1.1c.2 0 .2 0 .2-.1 0 0-.1 0-.1-.1-.1.1-.1.1-.2.1zm45.7 24.9s-.1 0-.1-.1c0 .1.1.2.1.1zm19.2-2.9s-.1 0-.1-.1c.1.2.1.2.1.1zm11-15s0 .1-.1.1c.2 0 .2-.1.1-.1zm-.2.8c.1-.2 0-.4.1-.6h-1.2c-.4 0-.6.1-.8.4v.1l.3.3h.1c.3.1.6.1.9.2.2 0 .6-.2.6-.4zM602.6 49s0-.1.1-.1c-.2 0-.2.1-.1.1zm40.3 11.6c-.2 0-.3.1-.3.2l.1.1h.7c0-.1-.2-.3-.5-.3zm-64.8 16.7v-.4c0-.2-.2-.4-.4-.4h-.4c.1.7.2.8.8.8zM537 77c.1.2.2.5.3.7.3.2.5.4.8.5.1.1.3 0 .3-.2.1-.3.1-.7 0-1-.4-.9-.8-1.7-1.2-2.6-.2-.4-.4-.7-.6-1-.2-.3-.2-.8-.5-1.1-.1-.1-.4-.2-.5-.1-.1.1-.2.3-.1.3.2.4.6.7.6 1.3-.1 1.3.3 2.3.9 3.2zm58.9-1.9c0-.1 0-.1-.2-.2 0 0 0 .1.1.1 0 .1.1.1.1.1zM567.8 7.2s0-.1.1-.1c-.1 0-.2.1-.1.1zm85.3-.5c0 .1 0 .1 0 0zm25.2 41.6v-.4c-.2.2-.2.2 0 .4zm-1.3-6.4s0-.1.1-.1c-.2.1-.2.1-.1.1zM572.3 6.8l.1-.1h-.1v.1zm-49.7 42.7c-.1-.1-.2-.1-.3 0-.1.1-.2.3-.1.5.2 0 .4 0 .5-.1.1-.2 0-.3-.1-.4zm16.5-30.8c0-.1 0-.1-.2-.2v.1c.1.1.2.1.2.1zm38.2 57.8v-.8h-.7c.1.4.3.7.7.8zm81.3 18.2s0-.1 0 0c-.1-.1-.1 0 0 0zm-92.4 24.8v-.2c-.1-.1-.2-.1-.3-.2v.3c.1.2.2.2.3.1zm64.6-17.5s0-.1.1-.1c-.2.1-.2.1-.1.1zm-73.1-2.2v-.4c-.2.2-.2.3 0 .4zm98-4.3s0-.1.1-.1c-.1 0-.2.1-.1.1zm-106.3 3c.2.1.3 0 .3-.1 0 0-.1-.1-.2-.1h-.3l.2.2zm9.9-24h-.4c.2.2.3.2.4 0zm-3.7 58.8s.1.1 0 0c.1 0 0-.1 0 0zm-1.1 1.7c0-.1 0-.1 0 0 0-.1-.1-.1 0 0zm104.2-40.5h.2c.4-.1.4-.2.3-.5-.2-.4-.2-.4-.7-.3-.2 0-.4 0-.5.1v.4c.2-.1.5 0 .7.3zM540.1 36.7s.1 0 0 0c.1 0 0-.1 0 0zm-4.4 25c0 .2.1.3.2.3l.1-.1v-.7c-.2 0-.3.2-.3.5zm8.2 11.1h.2c.2-.2.2-.4.2-.6h-.3c-.1.2-.1.3-.1.5-.2-.1-.1 0 0 .1zm19.3 54.9c-.1 0-.2.1-.3.2.1 0 .1.1.2.1.4 0 .8 0 1.1.1-.3-.4-.6-.5-1-.4zm-22.7-93s.1 0 .1.1c0-.2-.1-.2-.1-.1zm65.8-26.1l.1.1c.1 0 .2 0 .3.1v-.5c-.1 0-.2 0-.3.1-.1 0-.2.1-.1.2zM652.7 30v.4c.2-.2.2-.2 0-.4zm-23.8-19.1h-.2l-.2.2h.3c.2-.1.2-.1.1-.2zM554.4 135c.1 0 .1 0 0 0 0-.1 0 0 0 0zm97.4-37.4h-.2s0 .1-.1.1c.3 0 .3 0 .3-.1zm-3.2 3.3v-.1h-.2v.1c0 .1.1 0 .2 0zm1.5 2.6c.1 0 .2.1.3.1h.2c.1 0 .1 0 .1-.1.1-.1.1-.2-.1-.3-.2-.1-.4.1-.5.3zm-94.9-3.6h-.1v.1c.1.1.1 0 .1-.1zm101.4-2.1c-.1.1-.2.1-.1.1.1.1.1 0 .1-.1zm.1-.2s0 .1-.1.1c.2 0 .3 0 .1-.1zm-2.3 1.6c-.5-.2-1-.2-1.5.3-.3.2-.6.3-.9.5-.1.1-.3.2-.3.3-.1.5-.5 1-.7 1.5 0 0 0 .1.1.2.1.3.6.4.9.2.3-.2.5-.4.8-.6.3-.2.4-.2.7 0 .3.2.6.4.9.3.1 0 .3-.1.3-.2 0-.4.3-.5.6-.6-.1-.4-.3-.9-.4-1.3-.1-.3-.2-.5-.5-.6zm1.2 2s-.1-.1 0 0c-.1 0 0 .1 0 0zm-6.7 2.4c-.7.3-1.5.6-2.2.9-.1.1-.2.3-.3.5v.6c.1-.1.2-.1.3-.2.4-.3.8-.5 1.3-.3s1.1 0 1.5-.3c.4-.3.6-.7.6-1.2-.4-.1-.8-.2-1.2 0zm-93.1 11.1h-.2c-.1.1-.1.2.1.2 0 0 .1 0 .1-.1v-.1zm.3-14.3h-.2c-.1.1-.2.2-.2.3h.3c.2-.1.3-.3.1-.3zm84.2 2.3c-.3 0-.5 0-.8-.1-.3-.5-.7-.8-1.2-.8-.4 0-.6.1-.8.5-.1.2-.2.5-.2.8 0 .3-.3.4-.4.7 0 .1 0 .3.1.4.1.1.2.1.4.1.1 0 .3 0 .4-.1.7-.5 1.4-.7 2.2-.9.2 0 .4-.2.5-.3 0 0 .1-.1.1-.2-.2 0-.3 0-.3-.1zm-85.2-1.9c-.1 0-.1.1-.1.2v.2c.1.1.2.1.3 0 .1-.1.2-.3.3-.5-.1 0-.3.1-.5.1zm79.8 6c-.6.2-1.2.3-1.8.1-.1 0-.3 0-.4.1-.3.3-.6.6-.8.9v.2c.1.1.2.2.3.2.5-.1 1-.3 1.6-.4.3-.1.7-.2 1-.1.2 0 .3.1.4.1.5-.1.9-.2 1.2-.6.1-.1.1-.3-.1-.3-.5-.4-1-.3-1.4-.2zm-5.1 1.1c-.4 0-.5.1-.4.2.1.1.2.2.3.2h.2c.3 0 .5-.1.4-.3 0-.3-.3-.1-.5-.1zm-3.3-.1c-.2-.1-.4-.1-.5-.2-.5 0-.8.1-1 .4 0 0-.1.2 0 .2.3.3.7.6 1.3.5.2 0 .3-.2.4-.4.1-.2 0-.4-.2-.5zm19.8-2.1s.1 0 0 0c0 0-.1 0 0 0zm28-4.3c-.1.1-.1.2-.2.3-.1.1-.1.3 0 .3s.3.1.3 0c.1-.1.2-.3.4-.4-.1-.1-.1-.3-.2-.3s-.2 0-.3.1zm-17.9-2.6c-.1-.1-.3 0-.3.1l.1.1h.3c0-.1 0-.2-.1-.2zm16.2 5.2c-.3.6-.1.9.5.9.2 0 .4-.2.3-.5 0-.1-.1-.3-.2-.5-.2-.2-.5-.2-.6.1zm2.8-5.3h-.3c.1.1.1.2.2.2 0 0 .1.1.2 0 .1 0 .1 0 .1-.1s-.1-.1-.2-.1zm.5-58.8c-.2 0-.2.1-.1.3.1.2.2.3.3.5.1-.1.2-.1.2-.2.1-.2 0-.4-.2-.5-.1 0-.2-.1-.2-.1zm2.6 10.9c-.1 0-.2.1-.3.2.1.1.2.2.3.2.1 0 .3-.1.3-.2s-.1-.2-.3-.2zm-16.2 42.6c-.1 0-.1.1-.1.1.1.1.2.2.3.1.1 0 .1-.1.1-.1-.1-.1-.2-.2-.3-.1zm16.1 2.8s0 .1.1.2l.1-.1c0-.3-.1-.3-.2-.1zm-3.5 2.2l.1.1v-.1c-.1.1-.1.1-.1 0zm-17.7 2.8c-.1-.1-.3 0-.3.1v.2c.1.1.3.2.4.3.1-.1.2-.1.2-.1.1-.3-.1-.4-.3-.5zm4.6-2.7c-.1.1 0 .4.2.4.1 0 .2-.1.3-.2.1-.1 0-.2-.1-.3-.2-.1-.3 0-.4.1zm-4.2 1.7c0 .1.1.2.2.3.1-.1.2-.1.3-.2.1-.1 0-.2-.1-.3-.2-.1-.4.1-.4.2zm-1-1.2c-.1.2-.3.4-.3.6-.1.1 0 .3.2.3h.2c.1-.1.2-.3.3-.5 0-.1-.2-.3-.4-.4zm4.6-6.9c-.2.1-.2.2 0 .3h.2c.1-.1.1-.2.2-.3h-.4zm.4 5.2s.1 0 .2-.1l-.1-.1c-.3 0-.3.1-.1.2zm.4-5.5h-.2c-.1.1-.1.2-.2.2h.3c.2 0 .2-.1.1-.2zM617.3 8c-.1.1-.1.1 0 .2h.1v-.1c0-.1 0-.1-.1-.1zM571 7.1v-.2h-.1c0 .2 0 .3.1.2zM670.7 52s0 .1.1.2l.1-.1c-.1-.3-.2-.3-.2-.1zm-127-35.8c-.1.1 0 .2.1.2l.1-.1s0-.1-.1-.1c.1-.1 0-.1-.1 0zm6.1-2.8s0 .1.1.1.2 0 .2-.1c0 0-.1 0-.1-.1-.1 0-.2 0-.2.1zM569 15l.1.1h.2V15c-.1 0-.1-.1-.2 0 0-.1-.1 0-.1 0zm-16.1-3c-.2 0-.2.1-.2.3 0 .1 0 .1.1.2.3.3.6.3.8-.1.1-.1.1-.2.1-.4h-.8zm-19.4 60.6c-.2.1-.3.2-.4.2 0 0-.1.1-.1.2.4 1 1.1 1.8 2 2.8 0 0 .3 0 .3-.1.3-.4.3-.8.1-1.1-.4-.5-.9-1-1.3-1.5-.2-.2-.4-.3-.6-.5zm33.3-56.5c-.1 0-.3.1-.3.2-.1.1 0 .3.1.3s.2-.1.3-.2c0 0 .1-.1 0-.2 0 0-.1 0-.1-.1zm45.9-7.7v-.1s-.1 0-.1-.1c0 .1 0 .2.1.2zm-34.4-3.9l-.3.3s0 .1.1.1c.1.1.3 0 .3-.1v-.2c0-.1-.1-.2-.1-.1zm40.6 4s0 .1.1.1c.2 0 .2 0 .2-.1l-.1-.1c-.1 0-.2 0-.2.1zm-39.6-3c-.1.1-.1.2.1.2 0 0 .1 0 .1-.1v-.1h-.2zm-27.4 7.4c-.1.1-.1.2 0 .2 0 0 .1 0 .2-.1v-.1h-.2zm13.5 4.1s0-.1.1-.1c-.2.1-.2.1-.1.1zm.2-.2v-.1.1zm-12.2 78.4c-.2 0-.4.2-.3.3l.1.1c.2 0 .4-.1.3-.3l-.1-.1zm10.7-77.7s0 .1.1.1.2 0 .2-.1c0 0-.1 0-.1-.1-.1 0-.1 0-.2.1zm-8.7 82.2s0 .1-.1.1c.1 0 .2-.1.1-.1zm-5.2-3.4s0 .1.1.1c.3.1.6-.2.6-.4l-.1-.1c-.3 0-.5.1-.6.4zm13-87.7l-.1.1s0 .1.1.1h.1v-.2s-.1-.1-.1 0zM545 104.9h-.2c-.2.1-.2.3-.2.5s.1.3.2.2c.1 0 .1-.1.2-.1.1-.2.1-.4.2-.5-.1 0-.1-.1-.2-.1zm8.6-93h.1v-.1l-.1.1zM551.1 98c-.2.1-.2.2-.1.3.1.1.2.2.3.1.1-.1.2-.2.1-.3-.1-.1-.2-.2-.3-.1z"/><path fill="#63CAE2" d="M652.1 5.8zm0 0c0 .1.1.1 0 0 .1 0 .1 0 0 0zm-114.9 72c.1 0 .1 0 0 0 .1 0 .1 0 0 0 .1 0 .1 0 0 0 .1 0 0 0 0 0zm-10.1-1.6s0-.1 0 0zm0-.1c-.1 0-.1 0 0 0zm.2.7h.2c.1-.1.1-.2 0-.3-.1-.1-.3-.2-.4-.3 0 .2.1.3.1.5l.1.1zm119.1-15zm-.8-.4zm-122.2 9.4zm122.2-9.4c.2.3.4.4.8.4-.1-.3-.4-.4-.8-.4zm6.6-55.5c.2.3.4.3.7.4-.2-.3-.4-.4-.7-.4zm.7.3c.1 0 0 0 0 0zm-6.5 55.6zm2.5 1.7zm1.5.1v-.2c-.5-.6-1.2-.9-1.5-1.5-.1-.2-.2-.2-.5 0-.2.1-.4.3-.7.2-.4-.1-.8-.2-1.1-.1.1.1.2.3.4.4.2.2.4.4.6.5.2.1.5.1.7.2.3.1.6.3.7.5.4.1.9.2 1.3.2 0-.1 0-.2.1-.2zM574 4.6c.1 0 .1 0 0 0 .1 0 .1 0 0 0zm70.4 0zm-9.1-2.9c.1 0 .1 0 0 0 .1 0 .1 0 0 0 .1 0 .1 0 0 0zm9.2 2.8l-.1.1c.1-.1.2-.1.1-.1zm-9.6-3c-.1 0-.3 0-.4.1 0 0 .1.1.3.2h.5c-.1-.2-.2-.3-.4-.3zm9.5 3.1zm-9-2.9c0 .1 0 .1 0 0zm4.9 1.2c0 .1 0 .1 0 0zm-.1 0c0-.1-.1-.1 0 0zm10.2 2.4s.1.1.2.1h.3c-.1-.1-.1-.2-.2-.2-.2-.1-.3 0-.3.1zM527.9 31.2zM640.3 3zm-66.2 1.6zm77.4.9c-.2 0-.3 0-.5-.1.1.2.3.3.6.4h.5c-.2-.2-.4-.2-.6-.3zM568 5.3c.1 0 .2-.2.2-.3 0-.2-.2-.2-.3-.1-.1 0-.1 0-.2.1l-.3.3c.1 0 .2.1.4.1.1-.1.1-.1.2-.1zm52.7-4c0 .1 0 .1 0 0zm-46.5 3.2c-.1 0-.1 0 0 0zm46.5-3.2zm.1-.1c-.1 0-.1 0 0 0 0 0 .1 0 0 0zm30.1 4.2zm0 0s.1 0 0 0c.1 0 .1 0 0 0zm-74.3 70.3h.7c-.3-.4-.4-.4-.7 0zm99.7 27.4zm.2.4v-.2c-.1-.1-.2-.1-.2-.2v.3c.1.2.2.3.2.1zm-.9.9s-.1 0 0 0c-.1.1 0 .1 0 0zm.7-1.2c0-.1 0-.1 0 0 0-.1 0-.1 0 0zM653 6.3c0-.1 0-.1 0 0zm22.5 98.1c-.1 0 0 0 0 0zm-119.3-7.6l-.1.1.1-.1zm-2.2-2.3zm.2-.5l-.1.1v.3c.1-.1.2-.1.2-.2.1-.1 0-.2-.1-.2zm121.3 10.3c-.1 0-.1 0 0 0-.1 0-.1.1 0 0zM556.1 97zm-2-2.5c-.1 0-.1 0 0 0zm128.8-14.2c0 .1 0 .3.1.4.1-.1.1-.2.2-.3 0-.2 0-.4.1-.6-.3.2-.4.3-.4.5zM648 119.4s-.1.1-.1.2c.1.1.2.2.3.1.2-.1.5-.2.7-.3l.1-.1s-.1-.1-.2-.1c-.3-.1-.6-.1-.8.2zm6.2-1.7l.1-.1h-.2zm23.3-15.8zm-154-27.8l.1.1s.1 0 .1-.1v-.2c-.1 0-.2 0-.2.2zm-.5-2.3c-.1.1-.2.1-.3.2-.1.2 0 .4.2.5l.2.1c.1-.1.1-.2.2-.3 0-.3-.1-.4-.3-.5zM677.6 102s-.1 0-.1-.1c.1.1.1.2.1.1zm5.6-22.1c0-.1 0-.1 0 0 0-.1 0-.1 0 0zm-5.7 22zm5.9-23.8l-.1.1c0 .5-.1 1-.1 1.6.1-.1.2-.2.2-.3.1-.4.1-.8.1-1.2 0-.1 0-.1-.1-.2zm-.2 1.7zm-131.8-6.6s.1 0 .1.1c0-.2-.1-.2-.1-.1zm7.6 1.3h.4c-.2-.2-.3-.2-.4 0zm-5 0s.1 0 0 0zm-.2-.4v.2l.2.2v-.3c-.1-.2-.2-.3-.2-.1zm47.1-22.4l.1-.1s0 .1-.1.1zm-49.3 21.6zm2.4 1.1c0 .1 0 .1 0 0 0 .1 0 .1 0 0zm91.3-13.2c-.1-.1-.3 0-.3.1 0 0 .1.1.2.1h.3c0-.1-.1-.2-.2-.2zm-44.2-9.6c-.1 0-.1 0 0 0zm8-5.4zm-.2-.1s.1 0 .1.1c0-.2 0-.2-.1-.1zm.2.1zm-2.2-37.6c.1-.1 0-.2-.1-.3v.3h.1zm50.8 85.2c-.1.1 0 .2.1.3v-.4c0 .1 0 .1-.1.1zM551.5 73.2c.1.1.1.1 0 0 .1.1.1 0 0 0zm101.1-42.8V30c-.2.2-.2.2 0 .4zm-5.9 68.1l.1.1s-.1 0-.1-.1zm.1.1zm-88.9 1.1c.1-.1 0-.2-.1-.3v.4l.1-.1zm41.6-90.9s0-.1 0 0c0 0 .1.1 0 0zm46.1 52.6zM543.9 72h.3c-.1-.2-.2-.1-.3 0zm55.6-63.3c-.1 0-.1 0 0 0-.1 0-.1 0 0 0-.1 0-.1 0 0 0zm-.1 0zm49.5 54.7c0 .1 0 .1 0 0 0 .1 0 .1 0 0zm-99.7 34.8c-.1 0-.1 0 0 0-.1 0-.1 0 0 0-.1 0 0 0 0 0zm106.6-2.8c0-.1 0-.1 0 0 0-.1 0-.1 0 0 0-.1 0 0 0 0zm2.1-1.3zm0 0zm-92 25c0-.1 0-.1 0 0zm-8.2-19.6c0-.1 0 0 0 0zm92.4 4zm-92.4-3.7c0 .1 0 .1 0 0zm0-.4zm100.2-5.7zm-100.2 6.2c0-.1 0-.1 0 0zm73.2 2zm-2.5-90.8c.1 0 .1 0 0 0 .1 0 0 0 0 0zM652.7 30zm4 67.8c-.1 0-.1 0 0 0-.1 0-.1 0 0 0zM606.8 8.3zm0 0zm45.8 22.1c.1 0 .1 0 0 0 .1 0 .1 0 0 0zm6 64.2c.1 0 .1 0 0 0 .1-.1.1-.1 0 0 .1-.1.1-.1 0 0 .1-.1.1 0 0 0zm-3.2 6.5zm-2.8-70.7c.1 0 .1 0 0 0 .1 0 .1 0 0 0zm5.3 63.3zM652.7 30zm-48.8 85.3c0 .1 0 .1 0 0 0 .1 0 .1 0 0 0 .1 0 .1 0 0 0 .1 0 .1 0 0zm-38.8-38c0 .1-.1.1 0 0 0 .1 0 .1 0 0 0 .1 0 0 0 0zm41.5-18.8c0 .1 0 .1 0 0zm27.1 11.1zm-68.3-52.7c.1 0 .1 0 0 0 .1 0 .1-.1.1-.1l-.1.1c.1 0 .1 0 0 0zm69.7 56.9s0-.1 0 0c0-.1 0-.1 0 0-.1-.1-.1-.1 0 0zm-79.8 26s-.1.1 0 0c0 .1 0 .1 0 0zm-18.5-21.6c.1 0 .1 0 0 0 .1 0 .1 0 0 0 .1-.1.1 0 0 0 .1 0 .1 0 0 0zm-.8 0s.1 0 0 0c.1 0 .1 0 0 0 .1 0 0 0 0 0zM553.6 12c0-.1 0-.1 0 0zm-24 20.4c-.1 0-.1 0 0 0-.1 0-.1 0 0 0-.1 0-.1 0 0 0-.1 0-.1 0 0 0zm8.5 51.1zm101.4 19.2zm6.9 2.9c0-.1 0-.1 0 0zM606.8 8.7zm-42.6 119.4zm-8.5 5.3c.1 0 .1 0 0 0 .1 0 .1 0 0 0 .1 0 .1 0 0 0 .1 0 .1 0 0 0zm-1.2 1.6h.1-.1zm112.4-22.5zm-111.2-11.9c-.1.1-.1.1 0 0-.1.1 0 .1 0 0 0 .1 0 .1 0 0zM666 112.9zm.9-.4zm-.8.4c.5.4.9.4 1.3-.1.1-.1 0-.2-.1-.3-.1 0-.3 0-.4-.1-.2.4-.5.5-.8.5zm-.1 0s.1 0 0 0c.1 0 .1 0 0 0zM643.5 61c.1 0 .1 0 0 0 .1 0 .1 0 0 0 .1 0 0 0 0 0zM606.8 8.7zM522.2 50zm155.5-8.8l-.1-.1.1.1c-.1-.1-.1-.1 0 0zM538.9 18.5zM568 7.1c-.1 0-.1 0 0 0-.1 0-.1 0 0 0-.1 0-.1 0 0 0zm34.7 41.8c0-.1 0-.1 0 0 0-.1 0-.1 0 0 0-.1 0-.1 0 0 0-.1 0-.1 0 0zm3.7 11.3l.3.3-.3-.3zm-.1 0c.1 0 .1 0 0 0 .1 0 .1 0 0 0zM572.4 6.7c0-.1 0-.1 0 0 0-.1 0-.1 0 0zm36 53.1zm-2 .4s-.1 0 0 0zm.3.3c0 .1 0 .1 0 0 .1.1 0 .1 0 0zm71.7-12.3c.1-.1 0-.2-.1-.3v.4c.1 0 .1 0 .1-.1zm-.1.1c0 .1 0 0 0 0zm-.8-7.2c0-.1 0-.1 0 0 0-.1 0-.1 0 0zm0-.1zm.8 7.4c0-.1 0-.1 0 0 0-.1 0-.1 0 0 0-.1 0 0 0 0zm-1.3-6.6c.1 0 .1 0 0 0 .1 0 .1 0 0 0 .1 0 .1 0 0 0 .1 0 .1 0 0 0z"/><path fill="#63CAE2" d="M684 71.1c0-.7-.2-1.3-.5-2 0-.1-.2-.1-.3.1-.2.2-.4.1-.6 0-.4-.2-.4-.3-.4-.6s.1-.5.1-.8c0-.3-.1-.5-.4-.7-.2-.1-.4-.2-.5-.3-.2-.2 0-.5 0-.8.1-.2.1-.4.1-.6 0-.3-.1-.6-.5-.8-.1 0-.1 0-.2-.1-.4-.2-.4-.2-.1-.6.2-.3.2-.6 0-.9-.3-.3-.4-.7-.2-1.1.1-.3.1-.5.1-.8 0-.6 0-1.2.4-1.7.1-.1 0-.3-.1-.4-.2-.3-.4-.6-.7-.7-.6-.4-.7-.9-.9-1.5-.1-.4-.1-.6.3-.9l.3-.3c0-.7.4-1.3.2-2-.1-.5-.1-1.1-.1-1.6 0-.9-.2-1.7-.5-2.6-.1-.3-.4-.5-.8-.6-.4 0-.3-.4-.4-.6-.2-.2-.2-.2 0-.4 0-.1 0-.3.1-.4.3-.6.3-1.1-.2-1.7-.2-.2-.2-.5-.1-.8.1-.1.1-.3.1-.4 0-.2 0-.4-.1-.6-.1-.2-.3-.2-.6-.2s-.4-.1-.3-.4c.1-.4.2-.8.2-1.2 0-.3-.1-.5-.3-.7h-.1c0 .1 0 .1-.1.1s-.1-.1.1-.1v-.1c0-.3 0-.6.4-.8-.1-.1-.1-.2-.3-.3-.4-.3-.5-.6-.5-1v-.4c.2-.8.1-1.4-.4-2.1-.7-.9-1.1-2-1.6-3.1-.1-.2-.1-.4 0-.6.1-.3.1-.6 0-1-.4-1-1-1.9-1.5-2.9s-1.1-2-1.5-3.1c-.6-1.6-1.2-3.2-2.3-4.5-.4-.5-.6-1.2-1.2-1.7-.3-.2-.1-.7-.3-1-.4-1-.8-2-1.7-2.8-.3-.3-.5-.6-.8-1-.2-.2-.4-.4-.6-.5-.2-.1-.5-.2-.8-.3-2.8-1.1-.9.6-2.5-2.2v-.2c0-.1-.1-.3-.1-.3-.7-.1-.9-.7-1.3-1.2-.2-.2-.5-.5-.8-.6-1-.5-1.9-1.1-2.9-1.5-.8-.3-1.4-.9-2-1.3-.1-.1-.1-.2 0-.4.2-.3.2-.3 0-.5-.5-.4-1-.3-1.5-.4v.5s.1 0 .1.1 0 0-.1-.1h-.1c-.6.1-1.2.1-1.7-.3-.2-.1-.5-.2-.7-.3-.4-.2-.8-.2-1.2-.1-.2 0-.4.1-.6.2-1.1.3-2 .1-2.8-.6-.3-.3-.7-.4-1.1-.5-.2 0-.3-.2-.4-.3-.1.1-.2.1-.4.2-.6.2-.9.1-1.1-.4-.1-.2-.1-.4-.2-.6-.1-.1-.2-.3-.3-.3l-2.1-.6-.1.1c-.7.4-1.5.5-2.3 0-.4-.2-.8-.6-1.1-.9-.4-.4-.9-.5-1.5-.5-.1.1-.2.2-.3.2-.7.1-1.3.3-2 .4-.1 0-.2-.1-.3-.2-.2-.2-.4-.6-.7-.7-.5-.1-.7.3-1.1.4-.2.1-.4 0-.5.2-.1.1-.2.2-.3.1-.6-.6-1.4-.8-2-1.3-.2-.1-.4-.2-.5-.2-.5.1-1.1.1-1.6 0-.1 0-.3 0-.4.1-.2.2-.4.4-.5.6-.2.2-.5.3-.7.1-.3-.2-.7-.4-1-.6-.5-.3-.9-.3-1.3.1-.2.2-.4.4-.6.5-.1.1-.2.1-.4.1s-.3-.1-.4-.3h-.6c-.6.1-1.1 0-1.6-.2-.3-.2-.7-.1-1 0-.8.1-1.5-.1-1.8-.9 0-.1-.1-.1-.1-.1-.1 0-.3.1-.3.2-.1.2-.1.4-.2.6-.3.6-.9.8-1.5.4l-.3-.3c-.2-.2-.5-.2-.7 0-.1 0-.1.1-.2.1-.3.2-.5.1-.7-.1-.4-.4-.9-.4-1.3-.2-.2.1-.3.2-.5.3-.3.2-.5.1-.7-.1-.1-.1-.2-.3-.4-.5-.1-.2-.4-.2-.6-.1-.3.2-.7.5-1 .7-.6.4-1.3.6-1.9.5-.5-.1-.8.1-1.1.3-.2.1-.4.1-.5-.1-.1-.1-.2-.2-.3-.2-.5 0-1.1.1-1.6.2-.4 0-.8.2-1.1.4-.2.1-.4.2-.5.2 0 0-.1-.1-.2-.1v-.4c0-.3-.2-.4-.4-.3-.4.5-1 .2-1.5.5-.6.2-1.2.3-1.8.2-.6-.1-1.1 0-1.5.4-.2.2-.5 0-.7-.3-.1-.2-.2-.5-.3-.7-.1-.1-.2-.1-.3 0-.2.2-.3.5-.4.7-.1.3-.2.3-.5.3s-.5-.1-.8-.1c-.5-.1-.9.1-1.2.5-.2.3-.5.4-.8.4-.3 0-.7.1-1 .2-.1 0-.4-.1-.5-.3-.1-.2-.1-.4-.2-.6-.1-.2-.4-.2-.5-.1 0 .1-.1.1-.1.2-.1.5-.4.6-.9.5-.2-.1-.4 0-.6.1-.3.2-.5.5-.9.4-.1 0-.2.1-.3.2-.2.2-.5.3-.7 0-.2-.2-.4-.4-.6-.5-.3-.2-.6-.2-.9.1-.4.9-.4.8-.7.5l-.3-.3c-.1-.1-.2-.1-.4 0-.1.1-.2.2-.1.3.1.5.1.5-.1.5-.3.1-.6.2-1 .3-.1 0-.3-.1-.3-.1-.2-.3-.3-.6-.5-.9-.2-.3-.4-.4-.7-.2-.2.1-.3.3-.5.4-.4.1-.7.3-.7.8 0 .1-.1.2-.2.3-.3.2-.6.4-.9.5h-.4c-.3-.4-.8-.4-1.3-.4-.1 0-.2-.2-.3-.3-.2-.2-.4-.3-.6-.5-.2-.2-.4-.2-.6 0-.3.2-.4.5-.3.7.1.1.2.2.2.3.4.6.4.9-.1 1.4-.1.1-.2.1-.3.2h-.1l-.1.1v-.1h.1l.1-.1v-.6c0-.3-.1-.4-.4-.3-.6.1-.9-.2-1.1-.6-.1-.2-.2-.5-.4-.7-.1-.1-.3-.1-.3.1-.2.4-.4.8-.6 1.3-.2.3-.4.5-.8.4-.2 0-.3 0-.3.1-.1.3-.2.7-.5.8 0 .1-.1.1-.1.1-.1 0-.1-.1.1-.1-.4-.4-.9-.6-1.1-1.1 0-.1-.2-.2-.3-.2h-.4c-.1 0-.1.1-.1.3v.2c0 .3-.1.4-.3.5-.3.1-.5.1-.8.2v.2c.2.2.3.3 0 .5-.2.1-.4.2-.6.1-.2-.1-.3-.3-.4-.4-.3-.3-.3-.3-.6 0-.2.2-.4.3-.7.3-.3 0-.5-.1-.8-.1-.3-.1-.5 0-.7.2-.3.4-.6.7-.9 1.1-.3.3-.2.3-.7.1-.1-.1-.2-.2-.4-.2-.3 0-.5.1-.8.1-.3 0-.6-.2-1-.2-.1 0-.1 0-.2.1s-.2.2-.2.3c.1.2.3.3.4.5.2.2.1.5-.2.7-.4.2-.8.5-1.3.2-.2-.1-.5-.1-.8-.2-.4 0-.8-.3-1.1-.5-.1-.1-.3-.1-.4.1-.3.6-.7 1.2-1 1.8-.1.1-.2.2-.3.2-.5-.1-1.1.1-1.5-.4-.1-.1-.3-.1-.3 0-.2.4-.3.8-.5 1.1-.1.2-.3.4-.6.5-.7.2-1.5.3-2.2.2-.2 0-.4.2-.4.3-.1.3-.1.7-.2 1-.1.3-.2.5-.5.6-.6.1-1.2.3-1.7.7-.2.1-.4.1-.6 0-.2-.1-.3-.3-.5-.4-.2-.1-.4-.1-.6 0l-.7.7c-.2.2-.2.4-.1.6.1.3 0 .5-.2.7-.3.3-.6.6-1 .6-.7 0-1.3.2-1.8.8.1 0 .2.1.2.2h-.1v-.1c-.6.1-1 .4-1.5.6-.2.1-.3.2-.5.4s-.4.4-.6.5c-.4.2-.4.4-.2.7-.5.4-1 .8-1.6 1.3-.7.1-1.1.8-1.7 1.1-.5.3-.8.7-1 1.2-.1.3-.3.6-.4.9-.2.7-.6 1.4-1 1.9-.5.6-.9 1.3-1.3 2-.2.4-.4.8-.7 1.3-.2.3-.4.5-.7.6 0 .1.1.3.2.4.2.4.3.9.1 1.4-.2.8-.5 1.6-.8 2.3-.1.2-.2.4-.3.5-.1.1-.3.1-.3 0-.1-.1-.1-.2-.2-.4 0-.1-.1-.1-.1-.2-.1.1-.1.2-.2.3-.3.9-.8 1.7-1 2.7 0 .1 0 .3.2.3h.4c.1-.1.3-.3.3-.5.1-.2.1-.5.2-.8l.1-.1c.1 0 .3 0 .3.2s-.1.4 0 .6c.2.5 0 .8-.3 1.1-.1.1-.1.2-.2.3-.1.2-.1.2-.5 0-.2-.1-.4-.1-.5.1-.2.4-.3.9-.5 1.3-.2.5-.4.8-.9 1.1-.3.2-.3.4-.2.7.2.8.1 1.6-.2 2.4-.2.4-.3.9-.3 1.4 0 1.1-.4 2-1.2 2.7-.3.3-.3.6.1 1 0-.2 0-.4.1-.5.1-.1.2-.1.3 0 .1.1.1.2 0 .3-.1.1-.3.1-.5.1-.1.3-.3.6-.3 1-.1.8-.1 1.5.5 2.1.2.2.1.4-.1.5 0 .1-.1.1-.2.1-.1.1-.1.2-.1.4 0 .1.2.2.5.2.1 0 .1-.1.2 0 .1 0 .3 0 .4.1.1.1 0 .2-.1.3-.1.1-.3.3-.4.5-.6.6-.8 1.4-.8 2.2v1.8c.1.7.2 1.5.3 2.2.1.3.1.7.3 1 .2.4-.1.8 0 1.2.2.6.2 1.2 0 1.8-.1.2 0 .4.2.6l.3.3c.2.6.4 1.3.5 1.9 0 .1 0 .3-.1.4-.1.2-.3.3-.4.4-.5.6-.5.7.1 1.3.2.2.3.4.5.6.3.1.6.3.7.7.2.6.4 1.2.5 1.8.1 1 .5 2 .9 2.9.1.2.2.2.3 0 .2-.2.4-.3.7-.2.2.1.4.1.5.2 0-.3 0-.5.1-.8 0-.2.2-.2.3-.1.6.4.8 1.1 1.1 1.7v.2c0 .2-.1.4-.2.6-.1.6.1 1 .6 1.2.2.1.5.1.8.3.6.4 1.1.8 1.4 1.4.5.8 1.1 1.6 1.6 2.4.2.2.4.4.6.5.6.1 1 .3 1.5.7.4.3.8.5 1.2.7.1 0 .3 0 .4-.1.2-.1.3-.2.5-.1.6.2 1.2.3 1.7.6.6.4 1.3.5 1.6 1.2.1.2.3.3.5.3 1.5.5 3.1.9 4.8.8.1 0 .1 0 .2-.1s.2-.1.3-.3c.1-.1 0-.3-.2-.3-.3-.1-.5-.1-.8-.2-.1 0-.1-.1-.1-.1l.1-.1c1.4-.2 2.9-.3 4.2.3.6.2 1.2.1 1.8 0 .4-.1.7-.3 1-.6.3-.3.7-.1.7.3 0 .2 0 .4.1.6 0 .2.3.4.4.3.7-.3 1.3 0 2 0 .3 0 .5 0 .8-.1.2-.1.4-.1.6.1.2.3.5.5.9.3.7.1 1.3.3 2 .4.4.1.7 0 1-.1.3-.1.6-.3.9-.4.7-.4 1.5-.4 2.4 0 .1.1.2 0 .3-.1.1-.2.3-.3.5-.2.4.1.8.2 1.2.1.2 0 .4.1.5.2.4.3.8.3 1.2.2.7-.3 1.5-.3 2.2-.2h2.2c.5 0 1-.1 1.4-.3.6-.4 1.1-.4 1.7-.2.4.1.9.1 1.4-.1.3-.1.6-.2 1-.3 1.4-.2 2.7-.5 4-.9.2-.1.4-.2.6-.2.7-.1 1.4-.1 2-.1.7 0 1.3-.4 2-.4h.4c.7 0 1.5-.4 2.2-.2h.2c1.2-.4 2.4-.6 3.6-.8.5-.1 1-.2 1.2-.7.3-.6.7-.6 1.2-.4.4.1.8.1 1.2-.1.4-.2.9-.3 1.4-.4.5-.1 1-.2 1.4-.4.8-.3 1.6-.4 2.4-.6.3-.1.7-.1 1-.1 2 .1 3.9-.4 5.9-.5.3 0 .6-.2 1-.3.8-.3 1.7-.6 2.5-.9.9-.3 1.8-.5 2.8-.7.1 0 .3.1.3.1.1.2.2.4.3.5.1.3.3.4.6.4.2 0 .4-.1.6-.1.2 0 .4.1.5.3.1.3.1.5.3.7.4.4.8.8 1.3 1 .2.1.3.5.1.7-.3.3-.5.6 0 1 .3.2.4.6.7.8.6.3.5.7.4 1.2-.1.3.1.5.2.8.2.3.4.5.3.9-.1.3 0 .7 0 1 0 .3-.1.3-.3.4-.1 0-.2.1-.3.2.1.1.2.2.2.3.2.2.3.4.4.7.1.2 0 .3-.1.4-.2.1-.4.2-.5.3-.2.1-.2.4 0 .5.2.1.4.1.5.3.2.3-.1.5-.2.7 0 .1-.1.1-.1.1s-.1.1-.1.2c-.2.3-.1.7.3.7s.7.1.8.4c.1.1.1.3.1.4.1.5.6.7 1.1.9.1 0 .3 0 .4-.1l.3-.3c.4-.4.4-.4 0-.9 0 0-.1-.1 0-.2 0-.1.1-.2.3-.2.3 0 .5.1.8.1.4 0 .7-.1.8-.5.1-.3.3-.6.6-.7.7-.3.9-.8.8-1.5 0-.2.1-.4.4-.4.1 0 .3.1.4.1.9-.1 1.4-.4 2-.9l.7-.7c.2-.4.5-.6.9-.8.4-.2.8-.5 1-1 .1-.2.3-.4.5-.7.3-.5.6-.9 1.1-1.1.7-.4 1.2-1.1 2-1.5.6-.6 1.2-1.1 1.8-1.7.8-.8 1.6-1.7 2.6-2.3.6-.4 1-.9 1.5-1.4.6-.5 1.2-.9 1.7-1.4.2-.2.3-.4.3-.7 0-.2.1-.4.3-.5.4-.2.8-.3 1.1-.4.4-.2.8-.3 1.1-.5.2-.1.2-.5.4-.7.3-.3.5-.7.6-1 .1-.4.5-.4.8 0 .1.2.2.3.4.5.1.2.4.2.5 0 .2-.4.5-.8.7-1.2.1-.3.3-.5.6-.5.8-.2 1.1-.8 1.3-1.4 0-.1 0-.3-.1-.4-.3-.6-.3-.6-.2-.9.1-.3.2-.7.3-1 .1-.3.1-.7 0-1-.1-.3-.2-.5-.2-.8 0-.7-.4-1.1-.8-1.6-.1-.2-.3-.3-.3-.5-.1-.2-.1-.4-.1-.6-.2.1-.5.2-.7.1-.4 0-.8-.1-1.2-.2-.7 0-1.3-.3-1.8-.7-.4-.3-.8-.7-1.2-1-.2-.2-.3-.4-.3-.7h-.7c-.1 0-.1-.1-.1-.1 0-.1.1-.2.3-.2.3 0 .4.2.6.4h.3c.1 0 .3-.1.3-.2s0-.3-.1-.3c-.9-.5-1.7-1.3-2.8-1.6-.1 0-.3-.1-.4-.2-.4-.5-.9-.5-1.5-.6-.4 0-.6-.2-.8-.6-.1-.2-.4-.4-.6-.5-.4-.1-.8-.2-1.1-.5-.4-.4-1-.5-1.5-.7-.2-.1-.4-.1-.6 0-.4.1-.7 0-.9-.3-.4-.5-1-.9-1.6-1.2-.3-.2-.6-.2-1 0s-.8.2-1.2.1c-.3-.1-.7-.2-1-.2-.7.2-1.3-.1-1.8-.6-.2-.2-.5-.3-.7-.3-.5-.1-.9-.3-1.2-.6-.4-.5-1-.4-1.5-.4-.1 0-.3 0-.4.1-.5.1-.9.1-1.4-.1l-1.5-.6c-.5-.3-.6-.9-1.1-1.2-.2-.1-.5 0-.8 0-.2 0-.4-.1-.5-.3-.2-.2-.1-.7-.4-.7-.5 0-1 0-1.4-.1-.4 0-.7-.9-1-1.3-.2-.2-1.2-.3-1.4-.4-.7-.2-1.3-.2-2 0s-1.1-.3-1.5-1c-.2-.3-.5-.4-.8-.5h-.4c-.2.3-.5.4-.8.6-.1.1-.3.1-.4 0-.1-.1-.2-.2-.3-.2-.1 0-.2.2-.3.3-.2.2-.3.4-.6.5-.1 0-.3 0-.3-.1-.1-.1-.1-.2-.1-.4s.1-.4.1-.6c0-.1-.1-.2-.2-.3-.7-.1-2 1-2.2 1.5-.1.3-.3.6-.4.9-.2.4-.5.4-.8.4 0 .1 0 .1-.1.1s-.1-.1.1-.1c0-.1 0-.1.1-.2 0-.1.1-.3.1-.4 0-.1-.3-.2-.5-.1s-.4.1-.5.3c-.2.2.1 1.6-.1 1.8-.2.2-.3.4-.6.6-.4.3-.2.5-.1.8.3-.2.6-.3.9 0 .3.2.6.4.8.6.1.1.1.2 0 .4-.1.1-.3.2-.5.4-.1.1-.1.2-.2.3 0 .1.2.3.5.3h.6c.2 0 .3.3.3.5-.1.4-.4.5-.6.8v.2s.1.1.2.1c.3-.1.5-.2.8-.1.1 0 .2.2.3.3v.2c-.2.2-.4.3-.6.5-.1.1-.1.2-.1.4s.2.4.3.5h.4c.4-.1.7 0 .8.4.2.4.4.9.6 1.3.5.3.3.8.5 1.2.1.2.2.5.5.6.2-.3.5-.4.8-.4h1.2c0-.1.1-.1.1-.1.1 0 .1.1-.1.1 0 .2 0 .4-.1.6-.1.2-.4.5-.6.4-.3 0-.6-.1-.9-.2.1.7.4 1.4.7 2.1.1.2.3.3.5.2.1 0 .3-.1.4-.1.4-.2.6 0 .8.3.1.2.3.3.4.4.1.1.2 0 .3-.1.1-.1.3-.2.3 0 .1.2.2.5.2.8.1.3 0 .4-.3.3-.5-.1-.8.1-1.1.3v.2c0 .1.1.1.1.2.1.1.2.1.4.1.7.2.8.3.7.9 0 .3.1.4.3.4.2 0 .4-.1.6-.2.3 0 1 .3 1 .5 0 .3-.3.4-.5.6-.3.2-.5.4-.8.7v.2c0 .1.1.1.1.1.3-.1.5-.2.8-.3.3-.1.5 0 .7.3.1.2.2.3.3.5.2.3.2.4 0 .7 0 .1-.1.1-.1.2-.4.5-.7 1-.7 1.6 0 .4-.3.7-.8.9-.3.1-.5.1-.8.2-.3.1-.3 0-.5-.2-.3-.5-.3-.5-.7-.4-.1 0-.3 0-.4.1-.4.1-.4.1-.6.8 0 .2-.3.3-.5.2l-.3-.3c-.5-.3-1-.2-1.3.1-.1.1-.2.2-.2.3-.2.2-.4.4-.6.5-.3.1-.6 0-.8.2-.5.2-.9.1-1.2-.3-.1-.2-.3-.1-.4.2 0 .1 0 .3-.2.3-1.3.4-1.4.4-2.5 0-.3-.1-.5-.1-.8-.2l-.1.1v.2c-.1.5-.3.5-.7.3-.6-.4-.6-.4-1.2 0 .1 0 .1 0 .1.1s-.1.1-.1-.1h-.1c-.3-.1-.6-.2-.9-.2-.2 0-.4-.1-.6-.1-.2 0-.3.2-.3.4 0 .1.1.2.1.4.1 0 .2.1.2.2h-.1s0-.1-.1-.1c-.6.1-1.2-.2-1.8-.3-.2 0-.4.1-.4.3v.4c0 .2-.2.4-.4.3-.1 0-.3 0-.4-.1l-.3-.3c-.3-.3-.6-.3-.9 0-.5.4-1.1.5-1.7.4h-.2c-.3-.1-.5 0-.7.2-.3.2-.5.1-.7-.1l-.1-.1c-.3-.3-.6-.5-1.1-.4-.9.2-1.9.2-2.8.3h-.4c-.4-.1-.6.2-.8.4-.1.1-.2.2-.4.1s-.4-.1-.5-.3c-.3-.3-.7-.4-1.1-.2-.1.1-.3.1-.4.1-.5.1-.9.1-1.3.5-.1.1-.3.1-.4 0-.5-.2-1-.4-1.5-.5v.8h.4c.2 0 .4.2.4.4v.4c.1 0 .1 0 .1.1s-.1.1-.1-.1c-.7-.1-.7-.1-.8-.8-.4-.1-.7-.4-.8-.8-1.2-.6-1.4-.6-2.3-.7-.2 0-.4.1-.5.2-.2.3-.5.4-.9.4s-.7 0-.9-.3c-.6-.6-1.3-.6-2.1-.2-.2.1-.4.2-.6.2-.2 0-.4.1-.6 0-.3-.1-.5-.2-.8-.3-.1 0-.2 0-.3.1-.1.2-.2.3-.4.5s-.5.3-.7.1c-.4-.4-.9-.6-1.5-.6s-1.2.1-1.8-.2c-.2-.1-.4-.1-.6.1-.3.2-.7.4-1.1.4-.1 0-.2.2-.3.3-.2.2-.4.2-.5.1l-1.4-1.4c-.2.2-.2.2-.4 0-.3.2-.7.5-1 .7-.2.1-.4.1-.6.1-.2 0-.4-.1-.5-.3-.1-.2-.3-.3-.5-.1-.1.1-.2.2-.3.2-.8.4-1.1.3-1.7-.3-.1-.1-.2-.2-.3-.2v.1c-.2.5-.6.7-1.1.5-.2-.1-.4-.3-.6-.5-.2-.5-.3-1-.8-1.3 0 .5-.2.9-.5 1.3-.2.2-.7.2-.9-.1-.2-.2-.3-.5-.3-.7 0-.3-.1-.7-.3-.9-.1-.1-.2-.2-.3-.1-.1 0-.2.1-.3.2v.2c0 .2.1.4-.2.5-.5.1-.9.2-1.4.3-.2 0-.5-.2-.6-.5v-.6l-.1-.1h-.2c-.3.1-.4.3-.6.5-.1.2-.3.3-.4.4-.2.2-.7 0-.7-.3 0-.5-.2-.9-.6-1.2 0 .2 0 .5-.2.6 0 0-.1.1-.2 0s-.2-.1-.2-.2c0-.2.1-.3.1-.5-.2 0-.4.1-.6.1-.2.1-.3.2-.5.3-.1.1-.2.2-.3.2-.2.1-.6.1-.8 0-.1-.1-.2-.3-.2-.5-.1-.4.1-.8.2-1.2 0-.1 0-.3-.1-.4-.4-.4-.8-.7-1.1-1.2-.1-.2-.4-.3-.7-.4-.2-.1-.5-.1-.5 0s-.1.2-.1.4.1.4.1.6v.4c0 .1-.2.2-.3.2-.1 0-.3-.1-.3-.2-.2-.6-.5-1.1-1.1-1.4-.3-.1-.4-.3-.5-.6-.5-1.2-.5-1.2-.2-2.5 0-.1.1-.3.1-.4.1-.2 0-.4-.2-.5-.4-.2-.6-.5-.7-1-.1-.5 0-.9.4-1.3.1-.2.2-.4.1-.6-.2-.4-.2-.9-.5-1.2v.7c0 .1-.1.1-.1.1-.1 0-.2-.1-.2-.3 0-.3.1-.5.3-.6v-.1c0-.5-.1-1-.1-1.4-.1-.5-.2-.9-.4-1.4-.1-.3-.9-.5-1-.8-.2-.6-.2-1.3-.3-2 0-.1.1-.3.1-.4.1-.2.3-.3.3-.5.1-.7.1-1.1.2-1.7 0-.1-.1-.3-.2-.4-.2-.3-.2-.6 0-.9.2-.2.4-.4.5-.6.1-.2.2-.4.1-.6-.3-.7-.3-1.5-.3-2.2 0-.5.2-.8.4-1.2.1-.1.1-.3.1-.4-.2-.5 0-.9.2-1.3.6-.9 1-1.9 1.2-3 .1-.4.3-.8.5-1.1.8-1.1 1.3-2.4 2.2-3.4.2-.2.3-.6.5-.9v-.1s-.1 0-.1-.1 0 0 .1.1h.1c.1-.1.2-.1.3-.2.3-.3.3-.4 0-.6-.2-.2-.3-.4-.2-.7.1-.2.2-.3.3-.5-.1 0-.1-.1-.1-.1 0-.1.1-.1.1.1.5-.1 1-.4 1.6-.2.1 0 .2-.1.4-.1.2-.1.5-.3.7-.3.6 0 .9-.3 1-.8.1-.5.4-.8.8-1.1.6-.4 1.1-.8 1.2-1.5 0-.1 0-.1.1-.2.5-.6 1.1-1.2 1.9-1.5h.4c.5.2.7-.1.9-.5-.2 0-.2-.1-.2-.2h.1s.1.1.1.2c.1 0 .3 0 .4-.1.7-.5 1.4-1.1 2.1-1.6.1-.1.3-.3.3-.5.2-.6.6-1 1.1-1.4.7-.5 1.3-.9 2-1.4.4-.2.7-.3 1.2-.2.3.1.5.1.8 0 .6-.3 1.2-.7 1.7-1.1.3-.2.4-.5.3-.9 0-.1 0-.3.1-.4.3-.3.6-.5 1-.5.1 0 .1.1.1.1 0 .3.2.5.5.3.4-.2.7-.3 1.1-.5.3-.1.4-.3.4-.6.1-.4.2-.5.7-.4h.4c.1-.1-.4-.5-.4-.7 0-.1.1-.2.3-.2.1 0 .3.1.4.1.4.1.5.1.7-.3.3-.8 1-1.1 1.8-1 .4.1.8 0 1.2-.1.7-.2 1.4-.5 1.9-1.1 0-.1.3 0 .3.1.2.3.5.7.7 1 .2.3.5.5 1.1.3.3-.1.6-.3.9-.5.2-.1.2-.3.2-.5 0-.1-.1-.3-.1-.4 0-.6.3-1 .7-1.4.1-.1.2-.1.4-.1s.4 0 .6-.1c.5-.5 1.1-.7 1.8-.7.2 0 .4-.4.4-.6 0-.1-.1-.3-.1-.4 0-.2.2-.3.4-.3s.4.1.4.3c0 .2 0 .3.2.3.5-.1.9-.3 1.2-.7.2-.2.4-.3.7-.4 1.1-.3 2.3-.4 3.2-1.1.3-.2.8-.3 1.2-.3.5-.1 1.1-.1 1.6-.2s.9-.1 1.4-.3c.5-.2 1.1.2 1.6-.1.5.1.9 0 1.3-.3.3-.2.6-.3 1-.3 1 0 2-.2 3-.6.3-.1.6-.2 1-.2.7 0 1.5-.1 2.2.2.7-.2 1.5-.2 2.2-.2.1-.1.3-.3.4-.3.7.1 1.5 0 2.1.5.2.2.5.1.7 0 .2-.1.3-.3.5-.4.2-.1.4-.2.6-.2.6-.1 1.2 0 1.7.5l.7.7c.1.1.1.3.1.4 0 .2.1.2.2.3.2 0 .5-.2.5-.3v-.4c0-.3-.1-.5-.1-.8-.1 0-.2 0-.3-.1-.1 0-.1 0-.1-.1-.1-.1 0-.2.1-.2s.2 0 .3-.1c.3-.5.8-.4 1.2-.3.1 0 .1.1.2.1 0 .1 0 .1.1.2.1.3.4.5.6.3.2-.1.4-.4.7-.4.4 0 .8 0 1.2-.1.2 0 .4.1.6.2.2.2.4.4.6.5.4.3.9.6 1.5.6.3 0 .7-.2.8-.5.1-.2.1-.4.1-.6 0-.1.1-.1.1-.1.1 0 .2.1.2.2v.6c0 .1 0 .3.1.4 0 .2.2.2.3.1.1 0 .1-.1.1-.1.1-.2 0-.4 0-.6.1-.4.4-.5.8-.5.1 0 .3.1.4.1 0 .1-.1.2-.1.3-.2.4-.1.7.3.7.3 0 .5 0 .8-.1.3-.1.5 0 .7.3.1.1.2.2.3.2.5 0 1.1.1 1.6-.1.1 0 .2-.2.2-.3v-.8c0-.1.2-.3.4-.4.2 0 .4.1.4.4 0 .3-.1.6.2.7.4.3.5.8.6 1.2.1.3.4.4.6.1.2-.3.5-.4.8-.6.2-.1.2-.2.2-.3l-.3-.3c-.2-.1-.4-.1-.6-.1 0 .2-.1.2-.2.2v-.1s.1-.1.2-.1c0-.1 0-.3.1-.4.1-.1.2-.2.3-.2.5.2 1.1.1 1.6.2.1 0 .2.1.3.2.1.1.1.2.2.4l.6 1.5c.1.1.2.2.3.1l.1-.1c0-.3.2-.5.5-.5.4-.1.8 0 1.2.1.3.1.6.2 1 .3.1-.1.1-.2.2-.2 0 0 .1-.1.2 0s.1.2-.1.2h-.3c.1.1.2.2.3.2.4.1.8.3 1.2.4.7.1 1.5.2 2.2.4h.4c.4-.2.8 0 1.2.1.3.2.6.3.9.5.3.2.7 0 .9.3.3.3.6.3.9.2.1 0 .3-.1.4-.1.5-.1 1.3.4 1.5.8.1.3 0 1 .2 1.2.6.7 1.2 1.3 2 1.8.4.2.7.6 1 1 .2.3.4.2.7.1.1 0 .3-.1.4-.1.2 0 .6.2.6.5s0 .7.1 1c0 .4.1.4.5.5.3 0 .5 0 .8.1.4.1.4.5.6.8.1.1.2.2.4.1.2 0 .4-.1.6-.1.1 0 .2.1.3.2 0 .1-.1.1-.1.2-.4.3-.6.8-.4 1.3.1.4.5.7.9.8.6.1 1.1.6 1.4 1.1.2.3.4.6.6.8.3.3.6.5 1.1.4.4 0 .4 0 .3.5 0 .2 0 .3.1.3.6.2.9.6.9 1.2 0 .4.3.8.5 1.1.1.2.2.8.5.7.4 0 .4 0 .5.6.2.2.2.2 0 .4.1.3.3.6.7.6.3 0 .5 0 .7.2.3.3.6.7 1 1 .2.2.2.5.3.7.2.3.6.2.9.3.2.1.5.3.7.4.7.5 1.2 1.3 1.7 2 .3.4.6.7 1.1.8.3 0 .5.2.6.5.1.3.3.6.6.8.4.3.7.6 1.1.9.2.2.4.2.4.5.1.8.6.8.9 1.4.4.8.9 1.7 1.3 2.5.1.2.3.4.6.5.3.1.7 0 1 .3 0 0 .1.1.1.2s0 .2-.1.2c-.3 0-.5.1-.5.5s0 .8.1 1.2c.2.6.2 1.2.4 1.8.1.6.3 1.2.3 1.8 0 .2.1.4.2.6.3.2.3.6.4.9.1.3.4.5.6.8.1.2.2.3.3.5.3.6.4 1.3.9 1.8 0 0 .1.1.1.2-.1.5-.1 1.1-.1 1.6v1.2c0 .3.2.5.5.5h.2c0-.2 0-.4.1-.5.1-.1.2-.1.3.1.1.1.1.2.1.3-.1.2-.3.2-.5.2v.4c0 .4.1.6.6.6.2 0 .5.2.7.3.1.1.2.3.1.3l-.6 1.5c-.1.3-.3.6-.3 1-.1.9-.1 1.8.4 2.6.2.4.3.7.3 1.2.1.9 0 1.8.3 2.6.1.2 0 .4-.1.6-.1.3-.1.5 0 .8.1.3.2.5.2.8-.1 1.7.2 3.4-.3 5 .1.3 0 .5-.2.7-.5.5-.7 1.1-.7 1.9 0 1.2-.3 2.4-.5 3.6 0 .2-.1.4-.2.6-.3.3-.4.7-.4 1.1-.4.3-.2.7-.3 1.1-.1.6-.4 1-1 1.1-.4.1-.8.2-1.1.6-.1.1-.2.3-.1.4.5.5.3.9 0 1.4-.8 1.1-.8 1.1-1.6 1.8-.3.2-.6.3-.9.4-1.7.1-1.4.1-2.6 1-.5.4-1 .7-1.5 1.1-.3.3-.6.3-.9.2-.3-.1-.5.1-.7.3-.2.3-.4.7-.6 1 .2 0 .4 0 .5-.1.5-.1.6-.1.7.3.1.3.1.4-.3.5h-.3s0 .1-.1.1 0 0 .1-.1v-.1c-.2-.3-.5-.4-.8-.4-.4.8-1.2 1.1-2.1 1.2h-.1c0 .1 0 .1-.1.1s-.1-.1.1-.1V95c-.3-.3-.7-.4-1.1-.4-.5.1-.9.3-1.4.4-.6.1-1.1.4-1.6.8-.6.6-1.3 1.1-1.7 2-.2.5-.8.8-1.4.6h-.4c-.5.4-1 .1-1.5-.1-.1.1-.1.2-.2.3-.1.2-.3.3-.5.2h-.2c-.2 0-.4-.1-.6-.1-.5 0-.9.1-1.2.6-.3.5-.7.7-1.2.6-.7-.1-1.3.2-1.9.5-.2.1-.5.3-.7.4-.2.1-.2.2 0 .3.2.1.3.2.5.4 0 0 .1.1.1.2s-.1.2-.3.2c-.3-.1-.5-.2-.7-.3-.7-.4-1.4-.4-2.2-.3-.2 0-.4.1-.5.3-.3.3-.6.5-1.1.5-.4.1-.5.2-.3.5.4.5.3 1 .1 1.5 0 .2-.4.2-.5.1-.2-.2-.4-.4-.3-.7.1-.4 0-.7-.1-1-.1-.1-.2-.2-.3-.1l-.3.3c-.2.2-.5.2-.7.1-.2-.1-.2-.3.1-.7.2-.2.1-.3-.1-.4-.3-.2-.6-.2-.9 0-.2.2-.4.4-.6.5-.1.1-.3.1-.4 0-.3-.2-.6-.4-.8-.5h-.1c0 .1 0 .1-.1.1s-.1 0 .1-.1v-.1c0-.1-.1-.1-.1-.1-.2-.1-.5-.1-.5.1-.1.3-.1.5-.2.8-.1.2-.3.3-.5.2-.6-.2-1.3-.5-1.7-1 0-.1-.3 0-.4 0-.2.1-.4.2-.5.3l-.3.3c-.4.4-.8 0-1.1.1-.3.1-.3-.2-.4-.4 0-.1 0-.1-.1-.2-.2-.3-.4-.4-.7-.2-.2.1-.3.2-.5.4-.4.3-.8.3-1.1.1-.1-.1-.2-.1-.3-.2-.2-.2-.5-.3-.7-.1-.6.3-1.2.4-1.7 0-.7-.4-1.4-.4-2.1-.7-.4-.2-1-.1-1.4 0-.9.4-1.7.2-2.6.3-.9.1-1.8-.1-2.6-.2-.1 0-.3-.1-.3-.2-.2-.3-.5-.4-.9-.4-1 0-2-.1-3-.3-.5-.1-.9-.1-1.4-.1-.5 0-.9 0-1.4-.2-.3-.1-.7-.1-1-.2-.5-.2-.9-.1-1.3.2-.3.3-.8.3-1.1 0-.3-.3-.7-.4-1.1-.3-.4.1-.9-.1-1.4 0-.2.1-.5 0-.8-.1-.3-.1-.5-.2-.7-.3-.3-.2-.6-.2-1 0-.2.1-.4.2-.6.2-.2 0-.5 0-.6.1-.1.2.2.3.2.5 0 .3-.5.8-.8.8-.5 0-.9.1-1.4-.2-.3-.3-.7-.3-1.2-.3-.1 0-.3 0-.4.1-.4.2-.8.1-1.1-.2-.2-.1-.4-.2-.6-.2-.4.1-.8 0-1.2-.2-.6-.4-1.2-.5-1.9-.2-.3.1-.7.1-1 .2-.4 0-.6.2-.8.6-.1.3-.3.5-.6.4-.3-.1-.5 0-.8.2-.4.2-.7.4-1.1.6-.2.1-.4 0-.5-.1-.4-.3-.6-.3-.9-.1-.2.2-.4.4-.6.5-.4.3-.9.4-1.1.8-.2.4-.6.5-1 .6-.2 0-.3.3-.2.5.3.7 0 1.2-.3 1.7l-.3.3c-.1.1-.3.1-.4.1-.1 0-.3.1-.4.1-.2.1-.4.4-.2.7.3.4.3.7 0 1.1-.6.6-1.3 1.2-1.7 2-.1.3-1.1 1-1.4 1.1h-.6c-.5.6-1.2 1.1-1.6 1.9-.3.6-.7 1-1.2 1.3-.1.1-.2.2-.1.4 0 .4-.3.6-.6.8-.3.2-.3.4-.3.7 0 .4 0 .4-.5.5h-.2c-.5.1-.5.3-.2.7.4.5.2.9-.4 1.1-.3.1-.5 0-.8 0-.2 0-.4.1-.5.3 0 .1-.1.3-.1.4.1.1.2.1.3.2v.2c-.1.2-.2.1-.3-.1v-.3c-.3.1-.5.1-.6.4-.2.5-.5.8-1 .9-.3.1-.5.2-.6.5-.1.2-.7.7-.9.9-.3.3-.5.6-1 .6-.1 0-.3.1-.4.2-.8.9-2.1 1.3-2.8 2.3-.5.2-1.2.7-1.6 1-.1.1-.3.1-.4 0-.3-.1-.2-.5-.5-.7-.2-.1-.4-.4-.4-.7.1-.5.1-1.1-.1-1.6-.1-.5.4-1.2.5-1.6.1-.4.2-.8.4-1.2.1-.2.1-.4.1-.6-.1-.4 0-.8.1-1.2.2-1.1.2-2.3-.1-3.4 0-.2-.1-.4 0-.6.1-.5.2-1.1.4-1.6s.3-1.1.7-1.5c.2-.2.3-.5.3-.7v-1.2c0-.2-.1-.2-.3-.2-.3 0-.5-.2-.5-.5 0-.7.1-1.4.3-2 .1-.3.1-.5 0-.8-.2-.4-.5-.8-.5-1.3 0-.1-.1-.1-.1-.1-.2-.2-.2-.3-.1-.5.4-.4.3-1 .4-1.5 0-.1-.1-.3-.1-.4-.1-.2-.2-.3-.3-.5-.1-.2.1-.6.4-.6.3 0 .5 0 .5-.4 0-.2 0-.4.1-.6-.3-.2-.3-.2 0-.4 0-.3-.1-.5-.3-.7l-1.1-1.1c-.2-.2-.3-.4-.3-.7-.2.1-.4.1-.5.2-.2 0-.5-.2-.6-.4 0-.2.1-.4.2-.5.1 0 .1 0 .2-.1s.2-.1.3-.2c-.1-.1-.1-.2-.2-.3-.2-.2-.1-.5-.1-.7 0-.2-.1-.4-.4-.3-.2 0-.4.1-.6.2-.2 0-.3-.1-.5-.3-.4-.2-.7-.3-1.1.1-.2.2-.5.3-.7.2-.1 0-.3-.1-.4-.1-.6.2-1.2.3-1.7.6-.5.2-.9.6-1 1.2 0 .4-.1.7-.4.9-.1.1-.1.2 0 .3.1.1.2.3.4.4h.3c.1 0 .2.1.2.1 0 .2-.1.2-.3.1-.1-.1-.2-.2-.2-.3h-.1c-1.3.2-2.2.9-2.6 2.2-.1.2-.1.4-.2.6-.1.2-.2.3-.5.3-.1 0-.3-.1-.4 0-.2.1-.3.3-.4.5-.2.5-.3 1.1-.5 1.6-.1.3-.2.7-.5.9-.6.5-.7 1.1-.7 1.8v1.2c0 .4-.1.8-.4 1.1-.2.2-.3.5-.2.8.1.3.1.5-.1.8-.5.5-.8 1.1-1 1.7-.1.5-.3 1-.5 1.5-.1.2-.1.4-.1.6.1.5.1.9-.1 1.4-.3.8-.5 1.7-.4 2.6 0 .7-.1 1.3-.5 1.9-.2.4-.3.7-.3 1.2 0 .7-.6 1.6-.8 2.2-.1.2 0 .4 0 .6 0 .2.1.4.4.4.3 0 .4.2.4.4s-.1.4-.3.4c-.7.2-1.6.9-1.7 1.6-.1.9 0 1.8-.2 2.6 0 .1 0 .1.1.2.3.2-.4.9-.5 1.1-.2.4-.4.8-.4 1.2-.1 1.4-.1 2.7-.1 4.1 0 .3.1.6.3.7.4.5.2 1 .4 1.6 0 .1.1.1.1.1.1 0 .3.1.4.1.1 0 .2.6.3.7.4.3.9.9 1.3 1.1.2.1.3.3.2.5-.1.4-.4 2.9 1.1 3.4.5.2 1.1.2 1.6 0 .8-.3 1.7-.6 2.5-.8.2 0 .4-.1.5-.3.3-.3 2.7-2 3-2.3.4-.3.9-.3 1.2-.6.5-.4 1-.7 1.5-1 .1-.1.2-.2.2-.3-.1-.4 1-2.2 1.3-2.4.3-.2.6-.3.9-.4.4-.1.7-.4.8-.8 0 0 0-.1.1 0-.1-.1 0-.1 0-.1.5 0 .8-.2.9-.7.1-.3.3-.6.4-.9v-.1s-.1 0-.1-.1 0-.1.1.1h.1c.3-.1.5-.4.7-.6.2-.2.3-.4.5-.6.3-.2.6-.3.9-.1.2.2.4.3.7 0 .1-.1.3-.3.5-.4.7-.4 2-1.2 2.4-2 .1-.2.3-.3.5-.3.9-.2 1.5-.7 2.2-1.3-.4 0-.8 0-1.1-.1-.1 0-.1-.1-.2-.1.1-.1.2-.2.3-.2.4-.1.8 0 1 .4.6-.3 1-.9 1.5-1.3.7-.6 2-1.4 2.3-2.3 0-.1.2-.2.3-.3.6-.2 1-.7 1.5-1.1 1-.7 2.2-1.9 2.7-3 .2-.5.5-.9 1.1-1.1.2-.1.5-.2.7-.4.9-.8 1.9-1.5 3-2s2-1.1 3-1.8c1.1-.8 2.2-1.3 3.5-1.7.5-.2.9-.2 1.4.1.2.1.4.1.6 0 .4-.2.8-.2 1.2 0 .5.2 1.1.2 1.5-.3 0-.1.1-.1.2-.1.3-.2.5-.1.8 0 .4.2.6.5.8.9 0 .1.2.2.3.2.8-.4 1.6.1 2.4 0 .2 0 .4.2.5.3.1.1.3.3.5.3.4 0 .8-.1 1.2-.1.3-.1.5 0 .8.2.4.3.8.5 1.3.4.3 0 .5-.1.8 0 .6.1 1.2.3 1.8.4.8.2 1.7.5 2.6.4.3 0 .5.2.7.3.3.1.5.1.7-.2.1-.1.1-.2.2-.3-.1 0-.1 0-.1-.1s.1-.1.1.1c.5.2 1 .4 1.6.2.3-.1.5-.1.8 0 .8.2 1.7.4 2.5.7.7.3 1.4.4 2.2.3.3 0 .5.1.8.1.2 0 .4.2.6.1.5-.1.9 0 1.3.3.6.5 1.3.7 2.1.7.5 0 1 .1 1.4 0 .6 0 1.1 0 1.6.3.3.1.5.1.8.1.3-.1.5-.1.8 0 .5.1 1 .3 1.5.5.3.2.6.4.9.4 1.1 0 2.3.6 3.4.2.2-.1.4 0 .6.1.2.1.4.1.6.2.8.5 1.8.6 2.7.5.3 0 .7 0 1-.1.3 0 .6.1.8.2.4.4.6.1.8-.2.1-.1.3-.1.4 0 .2.2.4.4.6.5.5.4 1.2.4 1.7.1.5-.3 1-.4 1.5-.5.5.2.9-.1 1.4 0 .9.2 1.9 0 2.8.4.4.1.8.1 1.2 0 .6-.2 1.3-.3 2-.5.4-.1.8-.1 1.2 0 .5.1.9-.1 1.4-.2.1 0 0-.2-.1-.3-.2-.3-.1-.6.2-.6 1 0 1.9-.2 2.7-.6.4-.2.9-.4 1.4-.4.2 0 .4-.1.5-.2.2-.2.4-.3.7-.2.3.1.5 0 .8-.1.6-.2 1.2-.2 1.8 0 .2.1.4.1.6.1.4 0 .8-.1 1.1-.4v-.1c-.2-.1-.4-.2-.5-.3-.1-.1-.1-.2 0-.3.4-.4 1-.4 1.5-.4.5.1.9.4 1.4.3.5-.1.9-.3 1.4-.4.5-.1.9-.2 1.4-.3 1.1-.1 2-.8 3-1.2.3-.1.5-.4.8-.7.2-.2.3-.4.5-.6.2-.3.5-.4.8-.4.1-.1.1-.2.2-.3.3-.4.7-.6 1.2-.4.2.1.4.1.5-.1.2-.2.3-.5.5-.6.7-.7 1.3-1.4 1.6-2.3.1-.3.4-.3.7-.4.1 0 .2-.2.2-.3-.1-.4-.1-.8-.2-1.2-.1-.3-.3-.4-.6-.4s-.4-.1-.4-.3v-.4c0-.3.2-.4.3-.2.3.3.7.3 1.1.5.4.2.8.2 1.1-.1.2-.2.5-.3.8-.2.3.1.5 0 .8-.1.4-.1.5-.3.5-.7 0-.3 0-.5.3-.6v-.4c0-.5.3-.8.8-.9.1-.2.2-.4.3-.7.2-.4.5-.5.9-.6-.1-.3-.3-.6-.3-.9 0-.5.1-.9.2-1.4 0-.1.2-.2.3-.3.2-.2.3-.4.3-.7-.2.1-.5.2-.8.3-.1 0-.3 0-.3-.2 0-.1-.1-.3 0-.4.1-.2.3-.3.4-.4.3-.2.5 0 .6.3v.4c.2-.1.3-.2.4-.4.1-.1.1-.2.1-.4s-.1-.4 0-.6c.2-.2.4-.3.7-.3h.6c.2 0 .4-.2.5-.3l.6-1.5c.2-.4.3-.9.3-1.4 0-.4.1-.6.4-.9.7-.8 1-1.8.8-2.8-.1-.3-.1-.5 0-.8.1-.5.1-.9.1-1.4 0-.5 0-.9-.2-1.4-.2-.5-.2-.9-.1-1.4.1-.4.1-.8 0-1.2-.1-.2-.1-.4-.1-.6.1-.5 0-.9 0-1.4 0-.5.3-.9.3-1.4 0-1 .4-1.9.4-2.8 0-.8.2-1.5.5-2.2 0-.1.1-.1.1-.1.1.1.2.2.2.3.2.3.3.3.3.1v-.2c.6-1.4.5-2.8.5-4.3zM522.6 52.3h-.2v-.1l.1-.1c.2.1.2.2.1.2zm2.7-9.5c-.1.1-.2.2-.3.1l-.1-.1.3-.3s.1 0 .1.1v.2zm2.5 5.7c.3-.1.6-.1.7.1.1.1.1.2.1.4 0 .3-.3.5-.5.4-.2-.1-.3-.2-.4-.4-.1-.2-.1-.4.1-.5zm-.6 11.9c.1-.1.2-.2.3-.2.1 0 .2.2.2.3-.1.1-.2.2-.3.2-.1.2-.2-.1-.2-.3zm1.6 7.2c-.2.3-.4.5-.3.9 0 .3-.1.7-.4.9-.1.1-.3.1-.4 0-.4-.4-.7-.8-.9-1.3-.1-.2-.1-.4-.1-.6 0-.6-.1-1.2-.1-1.8-.1-.5-.1-.9-.2-1.4 0-.3.2-.5.4-.6.3-.1.5.1.7.4.2.4.4.7.5 1.1.2.4.4.8.7 1.2.4.3.5.8.1 1.2zm102.3-1.7c.3 0 .5.3.5.5s-.3.5-.5.5-.4-.2-.5-.5c0-.2.2-.5.5-.5zm-6.4-.2c.1-.1.3-.2.4-.2 1.4.2 2.7.7 3.8 1.5 1 .7 2.1 1.3 3 2.1.5.4 1.1.5 1.7.5h.1c0-.1.1-.1.1-.1.1 0 .1.1-.1.1.2.3.5.6.7.8.4.4.6.4 1.1 0 .1 0 .1-.1.2-.1s.3.1.4.1c.1.1.2.2.2.4v.2c-.4.9-.7 1.8-1.3 2.6v.1c.1 0 .1.1.2.1h-.1v-.1h-.1c-.7.1-1.1.4-1.5.9-.2.2-.3.5-.2.9.1.1.1.3.1.4 0 .2-.1.5-.3.6-.3.1-.6.3-.9.2-.4-.1-.7 0-.9.5l-.3.6c-.3.4-.7.6-1.2.6-.4 0-.8-.1-1-.5-.2-.3-.5-.6-.6-1-.3-.7-.5-1.4-.9-2.1.1-.5-.2-.9-.7-1.1-.4-.2-.7-.5-1-.9-.2-.2-.3-.5-.2-.8.2-.5.1-.9.1-1.3s-.2-.7-.4-1.1c-.5-.8-.8-1.6-1.1-2.5 0-.6.3-1 .7-1.4zm-17.3-7.1c-.1.1-.1.2-.2.3-.1.2-.3.3-.5.3s-.2 0-.1-.7v-.2c0-.1.3-.2.5-.2.2.2.4.4.3.5zM586.9 76s.1 0 .1.1v.2c-.2-.1-.2-.1-.1-.3zm-3.6 8.6h.2c.1.1.1.2.2.3l-.1.1c-.1 0-.3 0-.3-.1-.2-.1-.1-.3 0-.3zm-9.2-8.2c0-.1.1-.1.1-.1.1.1.2.2.1.3 0 .1-.1.1-.1.1-.1 0-.1-.1-.1-.3zm-9.1 1s.1 0 0 0c.1-.1.1-.1 0 0 .1-.3 0-.6.1-.8 0-.2.2-.2.3-.2.1 0 .1.1.2.1.1.2.1.4 0 .5-.2.2-.3.2-.6.4.1-.1.1 0 0 0 .1 0 .1 0 0 0 0 .1 0 .1-.1.1l.1-.1zm-6.2-2c.1-.1.4.1.4.3 0 .2-.2.4-.4.3-.1-.1-.2-.2-.2-.3.1-.1.1-.2.2-.3zM555 85s.1 0 .1.1v.2h-.1l-.1-.1c.1-.1.1-.1.1-.2zm-1.4-.6h.2v.1c-.1 0-.1.1-.2.1-.2 0-.2-.1 0-.2zm-4.5-5.7h.7c.2 0 .4.3.3.4-.1.1-.2.2-.3.2-.3 0-.5-.1-.7-.2-.1 0-.1-.2-.2-.3.1-.1.2-.1.2-.1zm-9.6 5.5c0-.1.2-.2.3-.1.1 0 .1 0 .1.1.1.1.1.2.1.4-.1.1-.1.2-.2.3-.1.1-.4.1-.5-.1.1-.2.2-.4.2-.6zm-7-58.4c.1-.1.2-.2.3-.2.3.2 0 .3-.1.4h-.1c-.1-.1-.1-.2-.1-.2zm.4 26.8c0 .1-.1.2-.2.1l-.1-.1.1-.1c.1.1.2.1.2.1zm-3.6-20.4h.1v.1s.1 0 .1.1-.1.1-.1-.1h-.1c.1.1 0 0 0-.1zm.2 43.4c-.2 0-.2-.1-.1-.2h.2l.1.1c-.1.1-.1.1-.2.1zm.2-1.8c-.1 0-.2-.1-.2-.3 0-.1.1-.3.2-.3s.2.2.2.3c0 .1-.1.3-.2.3zm4.4 2.8c-.5.5-.5 1.1-.7 1.7 0 .1-.2.2-.3.2-.3 0-.6 0-.9.3 0 .1-.3.1-.3.1-.7-.6-1.4-1.3-1.9-2.1v-.2c0-.2.1-.2.3-.2h.7c.1 0 .2.1.3.1.3 0 .4-.1.3-.3l-.3-1.2c0-.1 0-.3.1-.4 0-.2.4-.2.5-.1.4.3.5.6.7 1 .2.4.5.6.9.6.1 0 .2.1.4.1s.4.3.2.4zm.9 2.5v-.2h.1v.2h-.1zm3.1 4.4l-.1.1c-.1 0-.1 0 .1-.1 0-.1.1-.2.1-.2.1 0 .1.1-.1.2zm-2.5-11.1c.1-.1.4-.1.5.1.3.3.3.8.5 1.1.2.3.5.7.6 1 .4.9.8 1.7 1.2 2.6.1.3.1.7 0 1-.1.2-.2.2-.3.2-.3-.2-.6-.3-.8-.5h-.1l-.3.3v.1c0 .2-.1.4-.1.5-.1.2-.4.2-.5 0-.1-.2-.1-.3-.2-.5-.2-.1-.5-.2-.7-.2-.3 0-.4-.2-.6-.5-.1-.1-.1-.3 0-.4 0 0 .1-.1.2-.1.3 0 .5.1.8.1.2 0 .3.1.3.4v.6h.9l.3-.3v-.1c-.1-.3-.1-.5-.3-.7-.6-.9-1-1.9-1-3 0-.5-.4-.8-.6-1.3 0-.2.1-.3.2-.4zm-.2 2.2c.2.3.2.8-.1 1.1-.1.1-.3.1-.3.1-.9-.9-1.6-1.8-2-2.8 0 0 0-.1.1-.2s.2-.1.4-.2c.2.1.5.3.6.4.5.6.9 1.1 1.3 1.6zm8.5-58.2c-.2 0-.2-.1-.1-.2h.2l.1.1c-.1 0-.2.1-.2.1zm6-2.9l-.1-.1.1-.1s.1 0 .1.1c.1.1 0 .1-.1.1zm2.1-.4c-.2 0-.2-.1 0-.2h.2v.1c-.1.1-.2.1-.2.1zm1.8-1.2h-.1c0 .1 0 .3-.1.4-.2.4-.5.4-.8.1 0 0-.1-.1-.1-.2s0-.2.2-.3h.8c0-.1.1-.2.2-.2-.1.1-.1.2-.1.2zm9.5-3.1h-.1l-.1-.1.1-.1s.1 0 .1.1v.1zm.9 8.8l-.1-.1.1-.1s.1 0 .1.1c.1.1 0 .1-.1.1zm1.4-.8l-.1.1h-.1c0 .1 0 .1-.1.1s-.1-.1.1-.1v-.1h.2v-.1.1zm1.3-.4c-.1.1-.2.2-.3.2-.2 0-.2-.2-.1-.3.1-.1.2-.1.3-.2l.1.1v.2zm2.4-1.3h-.2c-.1 0-.1-.1-.1-.1s.1-.1.2-.1h.2c-.1.1-.1.2-.1.2zm1.7-8c-.1 0-.2-.1-.1-.2h.1c.1.1.1.2 0 .2zm7.1-2.2l-.1-.1.3-.3s.1 0 .1.1v.2c0 .1-.2.1-.3.1zm1.3.8c-.2 0-.2-.1-.1-.2h.2v.1c0 .1-.1.1-.1.1zm33.3 2.7c-.1 0-.2-.1-.1-.2 0 0 .1 0 .1.1.1 0 .1.1 0 .1zm4.7-.2c-.2 0-.2-.1 0-.2h.2v.1l-.2.1zm1.6.4l-.1-.1.1-.1s.1 0 .1.1c.1.1 0 .1-.1.1zm51.7 43.6c0-.1-.1-.1-.1-.2.1-.2.1-.2.2 0 0 .1 0 .1-.1.2zM545 105.6c0 .1-.1.1-.2.1s-.2-.1-.2-.2c0-.2 0-.4.2-.5h.2c.1 0 .1.1.2.1 0 .1-.1.3-.2.5zm5.3-9.2l-.1-.1c.1-.3.2-.4.6-.4l.1.1c0 .3-.3.6-.6.4zm1 2.1c-.1.1-.3 0-.3-.1-.1-.1 0-.3.1-.3.1-.1.3 0 .3.1.1.1 0 .2-.1.3zm1.9-2.9l-.1-.1c0-.2.2-.4.3-.3l.1.1c.1.2-.1.4-.3.3zm1.9 4.3h.1c0-.1 0-.1.1-.1s.1 0-.1.1c0 .1-.1.2-.2.2.1-.1.1-.2.1-.2zm.2 1.2c-.1.1-.2.1-.3 0v-.2c0-.1.1-.1.1-.2.2-.1.3-.1.5-.1h.1c.1-.1.1-.2.2-.3 0 0 .1-.1.2 0 .2.1.1.2-.1.2h-.4c-.1.3-.1.5-.3.6zm.3 13.6h.2v.1l-.1.1c-.2-.1-.2-.1-.1-.2zm71.1-6.4c-.1.2-.2.4-.4.4-.5.1-.9-.2-1.3-.5v-.2c.2-.3.5-.4 1-.4.1 0 .3.1.5.2s.3.3.2.5zm3.2 0h-.2c-.1-.1-.2-.1-.3-.2-.1-.2 0-.2.4-.2.2 0 .4-.1.5.2.1.1-.2.2-.4.2zm6.5-1.1c-.3.4-.7.6-1.2.6-.1 0-.3 0-.4-.1-.3-.1-.6 0-1 .1-.5.2-1 .3-1.6.4-.1 0-.2-.1-.3-.2v-.2c.3-.3.6-.6.8-.9.1-.1.3-.1.4-.1.6.2 1.2.1 1.8-.1.4-.2.9-.2 1.4 0 .1.2.1.3.1.5zm4-4.2c-.2.1-.3.2-.5.3-.8.2-1.6.4-2.2.9-.1.1-.3.1-.4.1-.1 0-.3-.1-.4-.1-.1-.1-.1-.2-.1-.4.1-.3.4-.3.4-.7 0-.3.1-.5.2-.8.2-.3.4-.5.8-.5.6 0 1 .3 1.2.8.3 0 .5 0 .8.1.1 0 .1.1.1.1.1.1.1.2.1.2zm8.1-2.2v.1h-.2v-.1h.2zm2.3 2.8l-.1.1h-.2c-.1 0-.2-.1-.3-.1 0 .5-.2.9-.6 1.2-.4.3-1 .5-1.5.3s-.9-.1-1.3.3c-.1.1-.2.1-.3.2h-.1s0 .1-.1.1 0 0 .1-.1v-.7c0-.2.1-.4.3-.5.7-.3 1.5-.6 2.2-.9.4-.1.8-.1 1.2 0 .1-.2.3-.4.6-.2.1.1.1.2.1.3zm.9-6.1h.2c0 .1-.1.2-.2.1-.1 0-.1-.1 0-.1zm3.8 3.6c-.1 0-.1 0 0 0-.1 0-.1 0 0 0-.4 0-.7.1-.7.5 0 .1-.2.2-.3.2-.4.1-.6-.2-.9-.3-.4-.2-.4-.2-.7 0-.3.2-.5.4-.8.6-.3.2-.7.1-.9-.2 0-.1-.1-.1-.1-.2.2-.5.5-.9.7-1.5 0-.1.2-.2.3-.3.3-.2.6-.3.9-.5.4-.5.9-.5 1.5-.3.3.1.4.3.5.6.1.5.2.9.5 1.4-.1 0-.1 0 0 0-.1 0-.1 0 0 0 0 0 .1.1 0 0 .1.2 0 .1 0 0zm1.1-3.3c.1 0 .1 0 0 0 .1-.1.1-.2.1-.2.2.1.1.1-.1.2.1 0 .1 0 0 0 0 .1-.1.1-.1.1-.1 0 0 0 .1-.1zm0 2.2s-.1.1-.2 0-.2-.2-.2-.3l.3-.6h-.3c-.1 0-.1-.1-.1-.1 0-.1.1-.2.3-.1l.2.2h.1c.2.1.3.3.3.5-.1.1-.3.2-.4.4zm.8 1.8c-.1-.1-.3-.2-.4-.3 0 0-.1-.1 0-.2s.2-.2.3-.1c.2.1.3.2.4.4-.1.1-.2.1-.3.2zm.7-1.5c-.1.1-.2.1-.3.2-.1-.1-.2-.2-.2-.3 0-.2.2-.3.4-.2.1.1.2.2.1.3zm3-7.9c-.2-.1-.2-.2 0-.3h.4c.1-.1.1-.2.2-.2 0 0 .1-.1.2 0s.1.2-.1.2h-.3c-.1.1-.1.2-.2.3h-.2zm.5 4.9c-.2-.1-.2-.1 0-.2l.1.1-.1.1zm.6 1.4c-.1.1-.2.2-.3.2-.2 0-.3-.3-.2-.4.1-.1.2-.1.3-.1.2.1.3.2.2.3zm.2-5.1c-.1.1-.2 0-.3-.1l.1-.1c.1-.1.3 0 .3.2.1-.1 0 0-.1 0zm10.7 11.3c-.6 0-.8-.4-.5-.9.1-.3.5-.3.6 0 .1.2.2.4.2.5 0 .2-.2.4-.3.4zm1.4-2.8c-.1.1-.2 0-.3 0-.1-.1-.1-.2 0-.3.1-.1.1-.2.2-.3.1-.1.2-.2.3-.1.1.1.1.2.2.3-.2.1-.3.3-.4.4zm1-3.2h-.2c-.1-.1-.1-.2-.2-.2h-.1v-.1l-.1-.1h.1v.1l.1.1h.3c.2 0 .2.1.2.2h-.1zm.7-58.4c0 .1-.1.1-.2.2-.1-.2-.2-.3-.3-.5-.1-.1 0-.3.1-.3s.1 0 .2.1c.2.1.3.3.2.5zm2.3 55.8c0-.1-.1-.1-.1-.2.1-.2.1-.2.2 0 0 .1-.1.2-.1.2zm0-45.1c-.1 0-.2-.1-.3-.2.1-.1.2-.2.3-.2.1 0 .3 0 .3.2 0 .1-.1.2-.3.2z"/><path fill="#63CAE2" d="M653 6.7c0-.1 0-.1 0 0-.1-.1-.1 0 0 0zM552.2 93.8s.1-.1.1-.2c-.1-.1-.1-.2-.3-.3-.3-.1-.7-.1-1 .1 0 0-.1.1-.1.2l.1.1c.4 0 .8.2 1.2.1zM678.3 48c0-.1 0-.1 0 0 0-.1 0-.1 0 0 0-.1 0 0 0 0zm0-.1zM675 98.6s.1 0 0 0c.1 0 .1 0 0 0zM544.2 72.1s0-.1 0 0zm0-.1s0 .1 0 0zm14.7 2.5zm-15-2.5c-.1 0-.1 0 0 0-.1.1-.1 0 0 0zm15.5 2.5s-.1 0 0 0c-.1 0-.1 0 0 0zm-.4 0s-.1 0 0 0zM543.8 72s0 .1 0 0c0 .1 0 .1 0 0zm-3.1-37.3s0 .1 0 0c0 .1 0 .1 0 0 0 .1 0 .1 0 0zm-.5 2.1c.1 0 .1 0 0 0 .1 0 .1 0 0 0 .1 0 0 0 0 0zm66.6 23.8zM656.6 99s.1 0 0 0zM536 61zm23.3 13.5c.1 0 .1 0 0 0zm102.3 17.6c-.1 0-.1 0 0 0-.1 0-.1 0 0 0zm-64.2-17.6zm-20.1 2.1c0-.1 0-.1 0 0 0-.1 0-.1 0 0 0-.1 0-.1 0 0zm18.5-1.7c-.1 0-.1 0 0 0-.1 0-.1 0 0 0-.1 0-.1 0 0 0-.1 0-.1 0 0 0zm-17.6 2.5s0-.1 0 0c-.1 0-.1 0 0 0zm-1.6-1.7c-.1 0-.1 0 0 0-.1 0-.1 0 0 0zm.8 0c-.1 0-.1 0 0 0zm-.9 0zm.9 0c-.1 0-.1 0 0 0-.1 0-.1 0 0 0z"/></svg>